<svg id="Group_4" data-name="Group 4" xmlns="http://www.w3.org/2000/svg" xmlns:xlink="http://www.w3.org/1999/xlink" width="217" height="30" viewBox="0 0 217 30">
  <defs>
    <clipPath id="clip-path">
      <path id="Clip_10" data-name="Clip 10" d="M0,0H7.723V10.112H0Z" fill="none"/>
    </clipPath>
    <clipPath id="clip-path-2">
      <path id="Clip_13" data-name="Clip 13" d="M0,0H16.352V20.788H0Z" fill="none"/>
    </clipPath>
    <clipPath id="clip-path-3">
      <path id="Clip_22" data-name="Clip 22" d="M0,0H16.74V20.79H0Z" fill="none"/>
    </clipPath>
  </defs>
  <text id="Onderdeel_van" data-name="Onderdeel van" fill="#f7921e" font-size="11" font-family="KohinoorBangla-Medium, Kohinoor Bangla" font-weight="500"><tspan x="13.201" y="12">Onderdeel</tspan><tspan x="47.169" y="24">van</tspan></text>
  <g id="Zeroplex-logo" transform="translate(71 3)">
    <g id="Group_24" data-name="Group 24" transform="translate(0 0.33)">
      <path id="Fill_1" data-name="Fill 1" d="M11.378,18.157H6.934a3.58,3.58,0,0,1-1.492-.278,3.38,3.38,0,0,1-1.051-.739,2.8,2.8,0,0,1-.628-.988,3.155,3.155,0,0,1-.2-1.072V1.022C3.567.714,3.448,0,2.356,0H1.163C.424,0,0,.372,0,1.022V15.616a4.919,4.919,0,0,0,.431,1.993,5.484,5.484,0,0,0,1.258,1.76,6.35,6.35,0,0,0,2.029,1.269A7.472,7.472,0,0,0,6.5,21.12h4.874c.738,0,1.162-.372,1.162-1.021V19.14c0-.3-.113-.984-1.162-.984" transform="translate(95.84 0.55)" fill="#fefefe"/>
      <path id="Fill_3" data-name="Fill 3" d="M14.963,0H6.491A7.192,7.192,0,0,0,3.705.5a6.639,6.639,0,0,0-2.02,1.286A5.4,5.4,0,0,0,.429,3.57,4.957,4.957,0,0,0,0,5.542V15.616a4.915,4.915,0,0,0,.43,1.993,5.466,5.466,0,0,0,1.255,1.76,6.341,6.341,0,0,0,2.024,1.269,7.446,7.446,0,0,0,2.782.482h8.472c.737,0,1.16-.372,1.16-1.021V19.14c0-.3-.113-.984-1.16-.984H6.919a3.565,3.565,0,0,1-1.488-.278,3.373,3.373,0,0,1-1.049-.739,2.8,2.8,0,0,1-.627-.988,3.176,3.176,0,0,1-.2-1.072V12.041h8.591c.737,0,1.16-.372,1.16-1.021v-.88c0-.65-.423-1.022-1.16-1.022H3.559V6.078a3.33,3.33,0,0,1,.2-1.093,2.783,2.783,0,0,1,.626-1.006,3.412,3.412,0,0,1,1.05-.738,3.564,3.564,0,0,1,1.487-.278h8.044c1.047,0,1.16-.687,1.16-.983V1.022C16.123.372,15.7,0,14.963,0" transform="translate(110.172 0.55)" fill="#fefefe"/>
      <path id="Fill_5" data-name="Fill 5" d="M14.963,0H6.491A7.19,7.19,0,0,0,3.705.5a6.639,6.639,0,0,0-2.02,1.286A5.415,5.415,0,0,0,.429,3.57,4.966,4.966,0,0,0,0,5.542V15.616a4.924,4.924,0,0,0,.429,1.993,5.486,5.486,0,0,0,1.256,1.76,6.341,6.341,0,0,0,2.024,1.269,7.444,7.444,0,0,0,2.782.482h8.472c.737,0,1.16-.372,1.16-1.021V19.14c0-.3-.113-.984-1.16-.984H6.919a3.565,3.565,0,0,1-1.488-.278,3.366,3.366,0,0,1-1.049-.739,2.805,2.805,0,0,1-.627-.988,3.176,3.176,0,0,1-.2-1.072V12.041h8.59c.738,0,1.161-.372,1.161-1.021v-.88c0-.65-.423-1.022-1.161-1.022H3.559V6.078a3.315,3.315,0,0,1,.2-1.093,2.767,2.767,0,0,1,.626-1.006,3.4,3.4,0,0,1,1.049-.738,3.564,3.564,0,0,1,1.487-.278h8.044c1.047,0,1.16-.687,1.16-.983V1.022C16.123.372,15.7,0,14.963,0" transform="translate(18.81 0.55)" fill="#fefefe"/>
      <path id="Fill_7" data-name="Fill 7" d="M9.758,21.12H6.365a7.176,7.176,0,0,1-2.727-.482,6.213,6.213,0,0,1-1.986-1.269,5.494,5.494,0,0,1-1.231-1.76A4.993,4.993,0,0,1,0,15.617V5.542A5.043,5.043,0,0,1,.42,3.57,5.416,5.416,0,0,1,1.652,1.788,6.48,6.48,0,0,1,3.634.5,6.924,6.924,0,0,1,6.365,0H9.758a6.922,6.922,0,0,1,2.73.5,6.48,6.48,0,0,1,1.982,1.285A5.406,5.406,0,0,1,15.7,3.57a5.043,5.043,0,0,1,.42,1.971V15.617a5.006,5.006,0,0,1-.42,1.993,5.51,5.51,0,0,1-1.232,1.76,6.211,6.211,0,0,1-1.986,1.269A7.182,7.182,0,0,1,9.758,21.12ZM6.785,2.963a3.438,3.438,0,0,0-1.458.278A3.3,3.3,0,0,0,4.3,3.98a2.778,2.778,0,0,0-.614,1.005,3.379,3.379,0,0,0-.194,1.093v9a3.212,3.212,0,0,0,.193,1.072,2.82,2.82,0,0,0,.614.988,3.308,3.308,0,0,0,1.029.738,3.43,3.43,0,0,0,1.46.279H9.337a3.425,3.425,0,0,0,1.46-.279,3.3,3.3,0,0,0,1.029-.738,2.809,2.809,0,0,0,.614-.988,3.212,3.212,0,0,0,.193-1.072v-9a3.38,3.38,0,0,0-.194-1.093,2.774,2.774,0,0,0-.613-1.005,3.306,3.306,0,0,0-1.03-.739,3.433,3.433,0,0,0-1.458-.278Z" transform="translate(57.325 0.55)" fill="#fefefe"/>
      <g id="Group_11" data-name="Group 11" transform="translate(137.945 0.012)">
        <path id="Clip_10-2" data-name="Clip 10" d="M0,0H7.723V10.112H0Z" transform="translate(0)" fill="none"/>
        <g id="Group_11-2" data-name="Group 11" transform="translate(0)" clip-path="url(#clip-path)">
          <path id="Fill_9" data-name="Fill 9" d="M7.536.469A1.158,1.158,0,0,0,6.545,0H5.4a1.3,1.3,0,0,0-.587.147A1.2,1.2,0,0,0,4.38.482L.107,7,0,7.158l1.863,2.954,5.71-8.576A.928.928,0,0,0,7.536.469" fill="#f29300"/>
        </g>
      </g>
      <g id="Group_14" data-name="Group 14" transform="translate(128.449 0.002)">
        <path id="Clip_13-2" data-name="Clip 13" d="M0,0H16.352V20.788H0Z" transform="translate(0)" fill="none"/>
        <g id="Group_14-2" data-name="Group 14" transform="translate(0)" clip-path="url(#clip-path-2)">
          <path id="Fill_12" data-name="Fill 12" d="M16.194,19.283q-1.54-2.263-3.1-4.526-1.175-1.7-2.366-3.4l-.673-.967.006-.01L3.392.445a1.264,1.264,0,0,0-.425-.3A1.371,1.371,0,0,0,2.368,0H1.2A1.214,1.214,0,0,0,.2.432.84.84,0,0,0,.158,1.464c.977,1.48,2.005,3.01,3.059,4.548q1.508,2.2,2.995,4.386L.338,19.332a.84.84,0,0,0,.044,1.024,1.214,1.214,0,0,0,1.006.433H2.554a1.241,1.241,0,0,0,.617-.172,1.418,1.418,0,0,0,.427-.34L8.159,13.3l4.8,7.038a1.222,1.222,0,0,0,.427.305,1.363,1.363,0,0,0,.6.144h1.167a1.2,1.2,0,0,0,1.01-.458.876.876,0,0,0,.031-1.047" transform="translate(0)" fill="#fefefe"/>
        </g>
      </g>
      <path id="Fill_15" data-name="Fill 15" d="M2.377,21.12H1.15C.419,21.12,0,20.748,0,20.1V5.542A5.007,5.007,0,0,1,.424,3.57,5.427,5.427,0,0,1,1.67,1.788,6.579,6.579,0,0,1,3.674.5,7.058,7.058,0,0,1,6.436,0H8.884a7.885,7.885,0,0,1,5.3,1.659A5.6,5.6,0,0,1,16.123,6.1a5.456,5.456,0,0,1-1.944,4.349,7.945,7.945,0,0,1-5.3,1.639H3.528V20.1C3.528,20.748,3.109,21.12,2.377,21.12ZM6.861,2.963a3.513,3.513,0,0,0-1.474.278,3.347,3.347,0,0,0-1.041.739,2.752,2.752,0,0,0-.621,1.005,3.349,3.349,0,0,0-.2,1.093v3.01H8.936a4.544,4.544,0,0,0,2.628-.7A2.549,2.549,0,0,0,12.547,6.1a2.766,2.766,0,0,0-.995-2.35,4.246,4.246,0,0,0-2.668-.8H8.869v.006Z" transform="translate(77.926 0.55)" fill="#fefefe"/>
      <path id="Fill_17" data-name="Fill 17" d="M15.883,19.579,11.542,11.8a8.137,8.137,0,0,0,1.346-.732,7.623,7.623,0,0,0,1.494-1.315,6.452,6.452,0,0,0,1.06-1.666,4.91,4.91,0,0,0,.4-1.973A5.6,5.6,0,0,0,13.88,1.662,7.7,7.7,0,0,0,8.847.006V0H6.421A7.041,7.041,0,0,0,3.665.5a6.548,6.548,0,0,0-2,1.286A5.415,5.415,0,0,0,.424,3.57,5.008,5.008,0,0,0,0,5.541V20.1c0,.65.418,1.021,1.147,1.021H2.324c1.079,0,1.195-.714,1.195-1.021V13.182h0v-7.1a3.351,3.351,0,0,1,.2-1.093A2.767,2.767,0,0,1,4.335,3.98a3.341,3.341,0,0,1,1.038-.739,3.492,3.492,0,0,1,1.471-.278H8.669a4.245,4.245,0,0,1,2.641.8,2.749,2.749,0,0,1,1.013,2.354A2.824,2.824,0,0,1,11.3,8.367a3.891,3.891,0,0,1-2.626.9l-1.539,0a.832.832,0,0,0-.819.818,1.892,1.892,0,0,0,.279.717l5.71,9.857a1.275,1.275,0,0,0,.988.456h1.647c.652,0,1.65-.477.948-1.541" transform="translate(38.515 0.55)" fill="#fefefe"/>
      <path id="Fill_19" data-name="Fill 19" d="M0,.91v.853c0,.263.113.876,1.154.876h9.869L13.436,0H1.154C.421,0,0,.332,0,.91" transform="translate(0 0.55)" fill="#f29300"/>
      <g id="Group_23" data-name="Group 23" transform="translate(0)">
        <path id="Clip_22-2" data-name="Clip 22" d="M0,0H16.74V20.79H0Z" fill="none"/>
        <g id="Group_23-2" data-name="Group 23" clip-path="url(#clip-path-3)">
          <path id="Fill_21" data-name="Fill 21" d="M15.494,17.873H4.356L16.211,3.38a2.007,2.007,0,0,0,.529-1.347A2.07,2.07,0,0,0,14.856,0h-.113L.523,17.41A2.019,2.019,0,0,0,0,18.757a2.06,2.06,0,0,0,1.863,2.033H15.494c1.069,0,1.185-.7,1.185-1.005v-.944c0-.291-.116-.968-1.185-.968" transform="translate(0 0)" fill="#fefefe"/>
        </g>
      </g>
    </g>
  </g>
</svg>
