<?xml version="1.0" encoding="utf-8"?>
<svg width="292px" height="46px" viewbox="0 0 292 46" version="1.1" xmlns:xlink="http://www.w3.org/1999/xlink" xmlns="http://www.w3.org/2000/svg">
  <g id="WhiteOrange-Logo">
    <g id="Group-15">
      <path d="M37.824 0L14.1756 0C13.3347 0.00195597 12.5579 0.453416 12.1354 1.18583L0.311191 21.8113C-0.10373 22.5446 -0.10373 23.4439 0.311191 24.1772L12.1354 44.8142C12.5579 45.5466 13.3347 45.998 14.1756 46L37.824 46C38.6639 45.9995 39.4396 45.5474 39.8586 44.8142L51.6828 24.1772C52.1057 23.444 52.1057 22.5387 51.6828 21.8055L39.8586 1.18583C39.4396 0.452597 38.6639 0.000462478 37.824 0Z" id="Path" fill="#F29222" fill-rule="evenodd" stroke="none" />
      <path d="M0 5.76759L1.59266 8L6.85379 1.16292C7.04874 0.92268 7.04874 0.596261 6.85379 0.356023L6.85379 0.356023C6.65294 0.119741 6.33654 -0.0128815 6.00676 0.000989669L4.98674 0.000989669C4.81303 0.00352149 4.64203 0.0402391 4.48568 0.108576C4.34051 0.168101 4.21206 0.256354 4.10989 0.366782L0 5.76759Z" transform="translate(37 14)" id="Path" fill="#534D5C" fill-rule="evenodd" stroke="none" />
      <path d="M14.8751 17.6236C13.9341 16.2415 12.9852 14.8613 12.0284 13.4831C11.3138 12.4522 10.5873 11.4157 9.86087 10.3791L9.27026 9.49714L9.27026 9.49714L3.11023 0.408526C3.00262 0.290325 2.86955 0.196484 2.72043 0.133635C2.55105 0.0472284 2.36255 0.00202532 2.17116 0.00191558L1.10216 0.00191558C0.747191 -0.0187331 0.403869 0.128514 0.180817 0.397073C-0.0464112 0.667181 -0.060885 1.0508 0.14538 1.33629C1.0431 2.68784 1.98217 4.09093 2.95076 5.49402C3.91936 6.89712 4.78755 8.16849 5.69709 9.50286L0.31075 17.6637C0.110138 17.9516 0.126915 18.3327 0.352093 18.6029C0.575145 18.8715 0.918467 19.0187 1.27344 18.9981L2.34244 18.9981C2.55123 19.0017 2.75655 18.946 2.93305 18.8377C3.08297 18.7609 3.21551 18.6558 3.32285 18.5285L7.50434 12.1544L11.9044 18.5857C12.0115 18.7059 12.1446 18.8017 12.2942 18.8664C12.4646 18.9501 12.6524 18.9952 12.8434 18.9981L13.9183 18.9981C14.2779 19.0153 14.6229 18.8588 14.8397 18.58C15.0534 18.2949 15.0534 17.9087 14.8397 17.6236L14.8751 17.6236Z" transform="translate(29 13)" id="Path" fill="#FFFFFF" fill-rule="evenodd" stroke="none" />
      <path d="M14.9971 0.960098L14.9971 1.81914C14.9971 2.08831 14.8966 2.70682 14.0092 2.70682L10.253 2.70682C9.43856 2.66638 8.64891 3.00014 8.09855 3.6174C7.86377 3.8724 7.68321 4.17469 7.56832 4.50508C7.48153 4.75833 7.42712 5.02206 7.40646 5.28967C7.40646 5.35267 7.40646 5.41567 7.40646 5.47294L7.40646 18.0951C7.42226 18.449 7.22192 18.7756 6.90414 18.9141L6.90414 18.9141C6.79402 18.9615 6.67718 18.9905 6.5581 19L6.5581 19L6.44089 19L6.34601 19C6.14508 19 5.91624 19 5.68741 19C4.8502 19 4.52648 18.6907 4.49858 18.6106L4.49858 18.6106L4.49858 18.6106C4.39804 18.4861 4.35344 18.3239 4.37579 18.1639C4.37579 18.1639 4.37579 18.118 4.37579 18.0951L4.37579 5.45576C4.38122 5.37376 4.38122 5.29149 4.37579 5.2095C4.32928 4.7484 4.20064 4.29998 3.99625 3.88657C3.64229 3.14599 2.90804 2.67706 2.10417 2.67818L0 2.67818L1.97022 0.0094239L14.0092 0.0094239C14.2702 -0.0298882 14.5343 0.0550823 14.7267 0.240206C14.9191 0.425329 15.0186 0.690383 14.9971 0.960098Z" transform="translate(12 13)" id="Path" fill="#FFFFFF" fill-rule="evenodd" stroke="none" />
      <path d="M4 0L3.26508 1.11611L2.03086 2.9935L1.1669 2.9935C0.589186 3.06169 0.0703232 2.58549 0 1.92255L0 0.999985C0 0.354833 0.56101 0 1.1669 0L4 0Z" transform="translate(8 13)" id="Path" fill="#534D5C" fill-rule="evenodd" stroke="none" />
    </g>
    <path d="M0.498557 0.247126L0.498557 12.931C0.498557 12.931 0.498557 12.9828 0.498557 13C0.492672 12.9771 0.492672 12.9539 0.498557 12.931L0.498557 0C0.50829 0.0822805 0.50829 0.164846 0.498557 0.247126L0.498557 0.247126Z" transform="translate(16 17)" id="Path" fill="#FFFFFF" fill-rule="evenodd" stroke="none" />
    <path d="M0.5 0.5L0.5 0.5" transform="translate(13 13)" id="Path" fill="none" fill-rule="evenodd" stroke="none" />
    <path d="M0.5 0.5L0.5 0.5" transform="translate(12 13)" id="Path" fill="none" fill-rule="evenodd" stroke="none" />
    <path d="M34.9976 11.5178L34.9976 34.382C34.9976 35.9711 34.092 36.9486 32.6431 36.9486L31.0017 36.9486C29.8697 36.9486 28.6924 36.2798 28.6924 34.382L28.6924 10.9462C28.7197 10.179 28.5766 9.41536 28.2736 8.71126C28.0072 8.11434 27.6218 7.57925 27.1416 7.13935C26.7156 6.72663 26.2057 6.41258 25.6474 6.21906C25.101 6.02785 24.5276 5.92747 23.9494 5.92183L20.5874 5.92183L20.5874 34.4335C20.5874 36.0168 19.6761 37 18.2158 37L16.7046 37C15.2444 37 14.3388 36.0168 14.3388 34.4335L14.3388 5.97327L10.9711 5.97327C10.4115 5.98062 9.85694 6.08105 9.32969 6.27051C8.78084 6.46999 8.27952 6.7835 7.8581 7.19079C7.38316 7.63101 6.99853 8.16122 6.72611 8.75127C6.42145 9.45888 6.2783 10.2266 6.30727 10.9977L6.30727 34.4335C6.30727 36.3312 5.11868 37 4.00366 37L2.35662 37C0.907664 37 0.00206936 36.0226 0.00206936 34.4335L0.00206936 11.5178C-0.0279154 9.83935 0.268213 8.1712 0.873704 6.60776C1.40153 5.26877 2.18416 4.04727 3.17731 3.01236C4.09044 2.05665 5.18346 1.29484 6.39217 0.771667C7.54843 0.266435 8.79433 0.00389464 10.0542 0L24.8833 0C26.1296 0.0103707 27.3613 0.272754 28.5057 0.771667C29.7272 1.29263 30.8336 2.05439 31.7601 3.01236C32.7526 4.04913 33.5436 5.26484 34.092 6.59632C34.7223 8.15754 35.0304 9.8322 34.9976 11.5178L34.9976 11.5178Z" transform="translate(152 4)" id="Path" fill="#FFFFFF" fill-rule="evenodd" stroke="none" />
    <path d="M27.0775 6.59304C26.5172 5.26308 25.7134 4.04824 24.707 3.01036C23.7649 2.05268 22.6427 1.28847 21.4044 0.761176C20.2392 0.268933 18.9879 0.0102657 17.7221 0L10.2423 0C8.96258 0.00155115 7.69634 0.260463 6.51974 0.761176C5.29195 1.28923 4.18129 2.05363 3.25168 3.01036C2.23672 4.04569 1.43532 5.26863 0.89269 6.61021C0.284186 8.16974 -0.0185334 9.83072 0.000877714 11.5035L0.000877714 34.396C0.000877714 35.987 0.921458 36.9657 2.40014 36.9657L4.07445 36.9657C5.22517 36.9657 6.42193 36.3018 6.42193 34.396L6.42193 24.0543L21.5942 24.0543L21.5942 34.4303C21.5942 36.3361 22.8025 37 23.936 37L25.5988 37C27.0775 37 27.998 36.0213 27.998 34.4303L27.998 11.5035C28.028 9.81418 27.7149 8.13624 27.0775 6.57015L27.0775 6.59304ZM6.42193 19.0408L6.42193 10.9884C6.39675 10.2178 6.53801 9.45085 6.83619 8.73921C7.11891 8.15353 7.50918 7.62557 7.98692 7.18252C8.41901 6.77527 8.92996 6.45982 9.48861 6.25537C10.0299 6.07207 10.5969 5.97548 11.1687 5.96922L16.7957 5.96922C17.3731 5.9754 17.9459 6.07197 18.493 6.25537C19.066 6.44777 19.5887 6.76446 20.0235 7.18252C20.5133 7.61928 20.9053 8.15353 21.1742 8.75066C21.4842 9.45518 21.6317 10.2198 21.6058 10.9884L21.6058 19.0408L6.42193 19.0408Z" transform="translate(195 4)" id="Shape" fill="#FFFFFF" stroke="none" />
    <path d="M13.6598 0.791054C13.2345 0.264242 12.5617 -0.0307207 11.8612 0.00254064L9.78638 0.00254064C9.41587 0.00547238 9.05134 0.0910934 8.72252 0.252422C8.41727 0.376192 8.14737 0.566478 7.9349 0.807713L0.188087 11.7636L0 12.0357L3.3738 17L13.7244 2.56243C14.1144 2.01391 14.0883 1.29103 13.6598 0.768842L13.6598 0.791054Z" transform="translate(278 5)" id="Path" fill="#F29222" fill-rule="evenodd" stroke="none" />
    <path d="M27.7244 34.2669C25.969 31.6014 24.1967 28.9207 22.4073 26.2248C21.0634 24.2143 19.7119 22.2019 18.3529 20.1875L17.2204 18.474L17.2204 18.474L5.79341 0.796264C5.58911 0.568537 5.34044 0.385762 5.06294 0.259363C4.74615 0.0934213 4.39497 0.00535179 4.03802 0.00233621L2.03914 0.00233621C1.3833 -0.0290606 0.752045 0.25747 0.340383 0.773417C-0.0868482 1.30023 -0.114612 2.04936 0.272433 2.60688C1.97119 5.23426 3.70959 7.95304 5.51594 10.6832C7.23736 13.2916 8.94744 15.8904 10.6462 18.4797L0.561222 34.3469C0.185304 34.9043 0.215196 35.6442 0.634835 36.1689C1.04823 36.6819 1.67891 36.9661 2.3336 36.9343L4.33247 36.9343C4.70572 36.9292 5.07102 36.8248 5.39137 36.6315C5.67734 36.4932 5.93331 36.2991 6.14449 36.0604L13.9588 23.666L22.1865 36.1689C22.3834 36.4132 22.6333 36.6086 22.9169 36.7401C23.2337 36.906 23.5849 36.9941 23.9418 36.9971L25.9407 36.9971C26.6159 37.0333 27.265 36.7295 27.6735 36.186C28.0893 35.6423 28.1098 34.8901 27.7244 34.324L27.7244 34.2669Z" transform="translate(263 5)" id="Path" fill="#FFFFFF" fill-rule="evenodd" stroke="none" />
    <path d="M28.739 2.66266C29.1106 2.09536 29.0832 1.3529 28.6708 0.81494C28.2622 0.272351 27.6137 -0.0317278 26.9384 0.00262907L24.9276 0.00262907C24.5715 0.00654681 24.2213 0.0947263 23.9052 0.260051C23.6102 0.387557 23.3494 0.583586 23.1441 0.832101L15.6748 12.1186L14.3854 14.0579L5.79146 0.797778C5.58765 0.568443 5.33793 0.38518 5.05873 0.260051C4.74096 0.0938543 4.38869 0.00564928 4.03063 0.00262907L2.04261 0.00262907C1.38526 -0.0260297 0.753243 0.260402 0.338586 0.774896C-0.086204 1.30395 -0.113959 2.05166 0.270425 2.61118C1.97445 5.2426 3.71823 7.96556 5.53017 10.7C7.25692 13.3123 8.9723 15.9151 10.6763 18.5084L0.543069 34.4C0.165987 34.9583 0.195972 35.6993 0.61691 36.2248C1.03876 36.7455 1.68317 37.0307 2.34933 36.9914L4.3544 36.9914C4.72711 36.987 5.09187 36.8823 5.41089 36.6882C5.69527 36.5385 5.94649 36.3322 6.1493 36.0818L13.9708 23.674L22.2182 36.2019C22.422 36.4313 22.6718 36.6145 22.951 36.7397C23.2704 36.9067 23.6248 36.995 23.9847 36.9971L25.9898 36.9971C26.6671 37.0334 27.3182 36.7291 27.7279 36.1848C28.138 35.6377 28.1585 34.8889 27.779 34.3199C26.0144 31.6503 24.2366 28.9655 22.4454 26.2654C21.0993 24.2518 19.736 22.2325 18.3785 20.2189L17.6685 19.1663L17.6685 19.1663L28.739 2.66266Z" transform="translate(229 4)" id="Path" fill="#FFFFFF" fill-rule="evenodd" stroke="none" />
    <path d="M27.6047 34.2972L20.0619 20.6571C20.875 20.3056 21.6512 19.876 22.3792 19.3744C23.3424 18.727 24.2151 17.9568 24.9746 17.0839C25.7332 16.2071 26.3542 15.2227 26.8168 14.1635C27.2788 13.0757 27.5152 11.9074 27.512 10.7277C27.6321 7.74879 26.3871 4.87514 24.1229 2.90553C21.9447 1.0273 18.996 0.0423739 15.3752 0.00228971L15.3752 0.00228971L11.1635 0.00228971C9.52242 -0.0295287 7.89205 0.270564 6.37254 0.884142C5.08376 1.41921 3.90553 2.18399 2.89661 3.14031C1.97038 4.0278 1.23535 5.09132 0.735738 6.26688C0.263206 7.35283 0.0131406 8.5206 0 9.70266L0 35.2077C0 36.3529 0.724152 37 1.99287 37L4.03787 37C5.90908 37 6.11184 35.7517 6.11184 35.2077L6.11184 23.0851L6.11184 23.0851L6.11184 10.6246C6.11726 9.9732 6.23077 9.32709 6.44785 8.71201C6.67846 8.05617 7.04552 7.45536 7.52539 6.94831C8.0322 6.407 8.64004 5.96757 9.31549 5.65416C10.1218 5.30584 10.9966 5.13956 11.8761 5.16742L15.045 5.16742C16.6902 5.1071 18.3076 5.59962 19.6332 6.56464C20.8208 7.48085 21.3712 8.85517 21.3712 10.6933C21.4128 12.2079 20.7564 13.6593 19.5869 14.6387C18.3201 15.7143 16.6908 16.2804 15.0218 16.2249L12.3511 16.2249C11.5616 16.2405 10.929 16.876 10.926 17.6565C10.9995 18.104 11.163 18.5324 11.4068 18.9163L21.3306 36.1983C21.7572 36.7112 22.3969 37.0042 23.0686 36.9943L25.9304 36.9943C27.0891 36.9943 28.7981 36.1582 27.5815 34.2915L27.6047 34.2972Z" transform="translate(103 4)" id="Path" fill="#FFFFFF" fill-rule="evenodd" stroke="none" />
    <path d="M0.829545 0L5.17045 0C5.6286 0 6 0.37358 6 0.834415L6 36.1656C6 36.6264 5.6286 37 5.17045 37L0.829545 37C0.3714 37 0 36.6264 0 36.1656L0 0.834415C0 0.37358 0.3714 0 0.829545 0Z" transform="translate(137 4)" id="Path" fill="#FFFFFF" fill-rule="evenodd" stroke="none" />
    <path d="M30 1.76032L30 3.48017C30 4.00185 29.8052 5.20002 28.0233 5.20002L20.4947 5.20002C19.6293 5.17485 18.7689 5.3392 17.9736 5.68157C17.2969 5.99449 16.6878 6.43654 16.1803 6.98292C15.712 7.47674 15.351 8.06235 15.1203 8.70277C14.9474 9.19887 14.8396 9.71531 14.7995 10.2392C14.7995 10.3653 14.7995 10.4742 14.7995 10.5889L14.7995 35.24C14.836 35.9233 14.4491 36.5587 13.8254 36.8395C13.6033 36.9262 13.3698 36.9803 13.1322 37L13.1322 37L12.8973 37L12.7139 37C12.3071 37 11.8487 37 11.3961 37C9.72307 37 9.0699 36.3866 9.0126 36.2318L9.0126 36.2318C8.99302 36.219 8.9772 36.2012 8.96677 36.1802C8.76648 35.9394 8.67887 35.6243 8.72613 35.3145C8.72613 35.2744 8.72613 35.2228 8.72613 35.177L8.72613 10.5258C8.7346 10.3692 8.7346 10.2123 8.72613 10.0557C8.63129 9.1547 8.37306 8.27854 7.96409 7.47021C7.23962 6.07002 5.79275 5.19344 4.21696 5.20002L0 5.20002L3.94767 0.000342757L28.0118 0.000342757C29.2838 -0.0168557 30 0.613755 30 1.76032Z" transform="translate(68 4)" id="Path" fill="#FFFFFF" fill-rule="evenodd" stroke="none" />
    <path d="M0.49847 0.446664L0.49847 23.8693C0.49847 23.9128 0.49847 23.9619 0.49847 24C0.487755 23.9566 0.487755 23.9127 0.49847 23.8693L0.49847 0C0.513265 0.148779 0.513265 0.297885 0.49847 0.446664L0.49847 0.446664Z" transform="translate(77 15)" id="Path" fill="#FFFFFF" fill-rule="evenodd" stroke="none" />
    <path d="M8 0L6.53708 1.84818L4.06623 5L2.33837 5C0.552916 5 0 3.72937 0 3.22882L0 1.66117C0 0.561056 1.08279 0.0110011 2.33837 0.0110011L8 0Z" transform="translate(62 4)" id="Path" fill="#F29222" fill-rule="evenodd" stroke="none" />
    <path d="M0.505 0.495L0.495 0.505" transform="translate(72 4)" id="Path" fill="none" fill-rule="evenodd" stroke="none" />
    <path d="M0.5 0.505L0.5 0.495" transform="translate(69 4)" id="Path" fill="none" fill-rule="evenodd" stroke="none" />
  </g>
</svg>