<?xml version="1.0" encoding="utf-8"?>
<svg width="360px" height="75px" viewbox="0 0 360 75" version="1.1" xmlns:xlink="http://www.w3.org/1999/xlink" xmlns="http://www.w3.org/2000/svg">
  <g id="Trimaxx_Logo_MetSlogan">
    <g id="Trimaxx_Logo_MetSlogan">
      <g id="Group_37" transform="translate(218.27368 65.90909)">
        <path d="M1.89205 1.34965L0 1.34965L0 0L5.44938 0L5.44938 1.34965L3.55733 1.34965L3.55733 7.52448L1.89205 7.52448L1.89205 1.34965Z" transform="translate(0.28983033 1.3076928)" id="Path_61" fill="#F7921E" fill-rule="evenodd" stroke="none" />
        <path d="M5.1801 5.60877C4.5453 6.11417 3.74031 6.36398 2.92665 6.30807C0.992084 6.30807 0 5.23115 0 3.14024C0 1.1752 1.11255 0.00736794 2.88413 0.00736794C3.5533 -0.0460692 4.21251 0.193107 4.68723 0.661579C5.16195 1.13005 5.40432 1.78058 5.35017 2.44094C5.35435 2.80374 5.32828 3.16627 5.27222 3.52485L1.60859 3.52485C1.55138 3.93275 1.69115 4.34354 1.98621 4.63472C2.28128 4.9259 2.69755 5.06383 3.11089 5.00737C3.61653 5.0156 4.10337 4.81837 4.45729 4.46192L5.1801 5.60877ZM1.63694 2.45492L3.79826 2.45492L3.79826 2.29408C3.79826 1.59478 3.49355 1.21017 2.83453 1.21017C2.50478 1.20539 2.18815 1.33743 1.96179 1.5741C1.73544 1.81077 1.62015 2.13034 1.64403 2.45492L1.63694 2.45492Z" transform="translate(5.9801416 2.6639616)" id="Path_62" fill="#F7921E" stroke="none" />
        <path d="M1.64517 0L1.64517 6.23077C1.64517 6.67832 1.85776 6.83217 2.16247 6.83217C2.23793 6.83843 2.31378 6.83843 2.38923 6.83217L2.38923 8.1049C2.1405 8.20885 1.87276 8.26122 1.60265 8.25874C1.16476 8.29891 0.731705 8.14308 0.422798 7.83418C0.113891 7.52528 -0.038271 7.0959 0.00823264 6.66434L0.00823264 0L1.64517 0Z" transform="translate(12.292904 0.69930094)" id="Path_63" fill="#F7921E" fill-rule="evenodd" stroke="none" />
        <path d="M5.1801 5.60928C4.5453 6.11468 3.74031 6.36448 2.92665 6.30858C0.992084 6.30858 0 5.23165 0 3.14074C0 1.17571 1.11255 0.00787568 2.88413 0.00787568C3.55503 -0.0474383 4.21671 0.190613 4.69412 0.659043C5.17153 1.12747 5.41655 1.77908 5.36434 2.44144C5.36494 2.80413 5.33889 3.16639 5.28639 3.52536L1.60859 3.52536C1.54767 3.93405 1.68621 4.34709 1.98221 4.63918C2.2782 4.93128 2.69675 5.068 3.11089 5.00788C3.61835 5.01475 4.10687 4.81788 4.46438 4.46242L5.1801 5.60928ZM1.63694 2.45543L3.80535 2.45543L3.80535 2.29459C3.80535 1.59529 3.50064 1.21067 2.83453 1.21067C2.50545 1.20802 2.19012 1.34071 1.96424 1.57689C1.73836 1.81306 1.62234 2.13138 1.64403 2.45543L1.63694 2.45543Z" transform="translate(15.178181 2.6634538)" id="Path_64" fill="#F7921E" stroke="none" />
        <path d="M3.91165 1.39201C3.68061 1.32887 3.44266 1.29365 3.20302 1.28711C2.7424 1.28711 2.57942 1.4969 2.57942 1.91648L2.57942 2.33606L3.91873 2.33606L3.91873 3.44795L2.54399 3.44795L2.54399 8.399L0.907048 8.399L0.907048 3.41998L0 3.41998L0 2.33606L0.935394 2.33606L0.935394 1.9025C0.935394 0.895503 1.64403 0.000397902 3.13215 0.000397902C3.47101 -0.00434026 3.80911 0.0332544 4.13841 0.112286L3.91165 1.39201Z" transform="translate(20.946442 0.4611407)" id="Path_65" fill="#F7921E" fill-rule="evenodd" stroke="none" />
        <path d="M0 3.16783C0 1.3007 0.793667 0 2.83453 0C4.87538 0 5.61945 1.24476 5.61945 3.12588C5.61945 5.00699 4.81869 6.29371 2.78492 6.29371C0.751149 6.29371 0 5.03497 0 3.16783ZM2.83453 5.02797C3.6778 5.02797 3.9329 4.42657 3.9329 3.18881C3.9329 1.95105 3.62111 1.26573 2.77075 1.26573C1.92039 1.26573 1.69363 1.86713 1.69363 3.1049C1.69363 4.34266 2.00543 5.03497 2.82744 5.03497L2.83453 5.02797Z" transform="translate(24.999815 2.6573434)" id="Path_66" fill="#F7921E" stroke="none" />
        <path d="M5.18718 6.16811L3.54316 6.16811L3.54316 2.31496C3.54316 1.69258 3.25262 1.32895 2.6928 1.32895C2.22963 1.32894 1.81242 1.60526 1.63694 2.02825L1.63694 6.15412L0 6.15412L0 0.133142L1.28262 0.133142L1.60859 0.699575L1.65111 0.699575C2.0753 0.244864 2.676 -0.00955226 3.30222 0.000274493C4.49981 0.000274493 5.18718 0.657617 5.18718 2.02125L5.18718 6.16811Z" transform="translate(31.561745 2.664062)" id="Path_67" fill="#F7921E" fill-rule="evenodd" stroke="none" />
        <path d="M0.942244 0.000441861C1.20335 -0.00749806 1.45608 0.0918614 1.64013 0.274808C1.82417 0.457754 1.92301 0.707875 1.91307 0.965477C1.90137 1.48215 1.47088 1.8935 0.947214 1.8884C0.423546 1.8833 0.00136681 1.46364 6.57393e-06 0.946843C-0.00135366 0.430048 0.418611 0.00822705 0.942244 0.000441861L0.942244 0.000441861ZM0.148577 2.57387L1.78552 2.57387L1.78552 8.63681L0.141491 8.63681L0.148577 2.57387Z" transform="translate(37.890057 0.22333443)" id="Path_68" fill="#F7921E" stroke="none" />
        <path d="M5.1801 5.60892C4.5453 6.11432 3.74031 6.36412 2.92665 6.30822C0.992084 6.30822 0 5.23129 0 3.14038C0 1.17535 1.11255 0.00751545 2.88413 0.00751545C3.55732 -0.0467801 4.22044 0.195114 4.69599 0.668449C5.17154 1.14178 5.41096 1.79823 5.35017 2.46206C5.35363 2.8246 5.32995 3.18689 5.27931 3.54598L1.60859 3.54598C1.55138 3.95388 1.69115 4.36467 1.98621 4.65585C2.28128 4.94703 2.69755 5.08495 3.11089 5.0285C3.61835 5.03537 4.10687 4.8385 4.46438 4.48304L5.1801 5.60892ZM1.63694 2.45507L3.79827 2.45507L3.79827 2.29423C3.79827 1.59493 3.49355 1.21031 2.83453 1.21031C2.50478 1.20554 2.18815 1.33758 1.96179 1.57425C1.73544 1.81092 1.62015 2.13049 1.64403 2.45507L1.63694 2.45507Z" transform="translate(40.660572 2.663814)" id="Path_69" fill="#F7921E" stroke="none" />
        <path d="M3.99668 4.05595L4.05337 4.05595L5.47064 0L7.95794 0L7.95794 7.52448L6.3706 7.52448L6.3706 1.93007L6.32808 1.93007L4.63445 6.6014L3.25971 6.6014L1.58734 1.93007L1.51647 1.93007L1.51647 7.52448L0 7.52448L0 0L2.55107 0L3.99668 4.05595Z" transform="translate(57.58978 1.3076928)" id="Path_70" fill="#F7921E" fill-rule="evenodd" stroke="none" />
        <path d="M0 3.16783C0 1.3007 0.793667 0 2.83452 0C4.87538 0 5.61945 1.24476 5.61945 3.12588C5.61945 5.00699 4.81161 6.29371 2.78492 6.29371C0.758235 6.29371 0 5.03497 0 3.16783ZM2.83453 5.02797C3.67071 5.02797 3.9329 4.42657 3.9329 3.18881C3.9329 1.95105 3.61402 1.26573 2.76366 1.26573C1.9133 1.26573 1.68654 1.86713 1.68654 3.1049C1.68654 4.34266 1.99834 5.03497 2.82744 5.03497L2.83453 5.02797Z" transform="translate(66.66026 2.6573434)" id="Path_71" fill="#F7921E" stroke="none" />
        <path d="M0 0L1.62277 0L1.62277 2.34266L1.66528 2.34266C2.02462 2.12201 2.43966 2.00568 2.86287 2.00699C4.28014 2.00699 5.28639 2.76224 5.28639 4.99301C5.28639 6.83916 4.18801 8.24476 2.14007 8.24476C1.4111 8.27657 0.684295 8.14508 0.0141726 7.86014L0 0ZM3.65654 5.12588C3.65654 3.76923 3.17467 3.34266 2.46604 3.34266C2.15816 3.32973 1.85925 3.4467 1.64403 3.66434L1.64403 6.87413C1.84337 6.93574 2.05173 6.96411 2.26054 6.95804C3.13215 6.95105 3.65654 6.4056 3.65654 5.11888L3.65654 5.12588Z" transform="translate(73.2151 0.69930094)" id="Path_72" fill="#F7921E" stroke="none" />
        <path d="M0.934712 0.000115851C1.32007 -0.00584459 1.67086 0.218646 1.82253 0.568288C1.97421 0.91793 1.89668 1.32336 1.62632 1.59441C1.35596 1.86547 0.94639 1.94837 0.589731 1.80423C0.233072 1.66009 7.47854e-05 1.31751 2.74545e-05 0.937179C-0.00390197 0.423781 0.414466 0.00434748 0.934712 0.000115851L0.934712 0.000115851ZM0.141045 2.57354L1.77798 2.57354L1.77798 8.63648L0.141045 8.63648L0.141045 2.57354Z" transform="translate(79.35254 0.22366045)" id="Path_73" fill="#F7921E" stroke="none" />
        <path d="M5.18009 5.60892C4.5453 6.11432 3.74031 6.36412 2.92665 6.30822C0.992084 6.30822 0 5.23129 0 3.14038C0 1.17535 1.11255 0.00751545 2.88413 0.00751545C3.55732 -0.0467801 4.22044 0.195114 4.69599 0.668449C5.17154 1.14178 5.41096 1.79823 5.35017 2.46206C5.35434 2.82487 5.32827 3.18739 5.27222 3.54598L1.60859 3.54598C1.55138 3.95388 1.69115 4.36467 1.98621 4.65585C2.28128 4.94703 2.69755 5.08495 3.11089 5.0285C3.61653 5.03673 4.10336 4.8395 4.45729 4.48304L5.18009 5.60892ZM1.63694 2.45507L3.76283 2.45507L3.76283 2.29423C3.76283 1.59493 3.45812 1.21031 2.79909 1.21031C2.47551 1.21525 2.16828 1.35152 1.94972 1.58704C1.73117 1.82257 1.62059 2.13655 1.64402 2.45507L1.63694 2.45507Z" transform="translate(82.122604 2.663814)" id="Path_74" fill="#F7921E" stroke="none" />
        <path d="M1.64517 0L1.64517 6.23077C1.64517 6.67832 1.85776 6.83217 2.16247 6.83217C2.23793 6.83843 2.31378 6.83843 2.38924 6.83217L2.38924 8.1049C2.1405 8.20885 1.87276 8.26122 1.60265 8.25874C1.16476 8.29891 0.731705 8.14308 0.422798 7.83418C0.113891 7.52528 -0.038271 7.0959 0.00823265 6.66434L0.00823265 0L1.64517 0Z" transform="translate(88.43537 0.69930094)" id="Path_75" fill="#F7921E" fill-rule="evenodd" stroke="none" />
        <path d="M0 0L1.66528 0L1.66528 7.52448L0 7.52448L0 0Z" transform="translate(100.901344 1.3076928)" id="Path_76" fill="#F7921E" fill-rule="evenodd" stroke="none" />
        <path d="M5.18719 6.16811L3.54316 6.16811L3.54316 2.31496C3.54316 1.69258 3.25262 1.32895 2.6928 1.32895C2.23103 1.32794 1.81538 1.60509 1.64403 2.02825L1.64403 6.15412L0 6.15412L0 0.133142L1.28262 0.133142L1.60859 0.699575L1.65111 0.699575C2.0753 0.244864 2.676 -0.00955226 3.30223 0.000274493C4.49981 0.000274493 5.18719 0.657617 5.18719 2.02125L5.18719 6.16811Z" transform="translate(104.06893 2.664062)" id="Path_77" fill="#F7921E" fill-rule="evenodd" stroke="none" />
        <path d="M0.80784 5.61539L0.80784 2.72727L0 2.72727L0 1.72028L0.793667 1.3986L1.36057 0L2.40935 0L2.40935 1.52448L3.93999 1.52448L3.93999 2.75525L2.40935 2.75525L2.40935 5.68532C2.38903 5.85821 2.44938 6.03085 2.57341 6.1546C2.69743 6.27836 2.8717 6.33982 3.04712 6.32168C3.34812 6.32071 3.64099 6.22518 3.8833 6.04895L4.30848 7.26574C3.79242 7.5627 3.19581 7.69462 2.60068 7.64336C1.56608 7.61539 0.80784 7.11888 0.80784 5.61539Z" transform="translate(109.83011 1.2727276)" id="Path_78" fill="#F7921E" fill-rule="evenodd" stroke="none" />
        <path d="M5.18009 5.60892C4.5453 6.11432 3.74031 6.36412 2.92665 6.30822C0.992084 6.30822 0 5.23129 0 3.14038C0 1.17535 1.11255 0.00751545 2.88413 0.00751545C3.55732 -0.0467801 4.22044 0.195114 4.69599 0.668449C5.17154 1.14178 5.41096 1.79823 5.35017 2.46206C5.35365 2.8246 5.32997 3.18689 5.2793 3.54598L1.60859 3.54598C1.55138 3.95388 1.69115 4.36467 1.98621 4.65585C2.28128 4.94703 2.69755 5.08495 3.11089 5.0285C3.61653 5.03673 4.10336 4.8395 4.45729 4.48304L5.18009 5.60892ZM1.63694 2.45507L3.79826 2.45507L3.79826 2.29423C3.79826 1.59493 3.49355 1.21031 2.83452 1.21031C2.50478 1.20554 2.18815 1.33758 1.96179 1.57425C1.73544 1.81092 1.62015 2.13049 1.64402 2.45507L1.63694 2.45507Z" transform="translate(114.344086 2.663814)" id="Path_79" fill="#F7921E" stroke="none" />
        <path d="M3.77701 1.63046C3.54341 1.58754 3.30592 1.56879 3.06838 1.57452C2.55589 1.58203 2.05928 1.75111 1.65111 2.05703L1.65111 6.16892L0 6.16892L0 0.133956L1.28971 0.133956L1.62277 1.02207L1.66528 1.02207C1.92248 0.384821 2.558 -0.0239446 3.25262 0.00108841C3.42898 0.000514348 3.60485 0.0192775 3.77701 0.0570325L3.77701 1.63046Z" transform="translate(120.672165 2.663248)" id="Path_80" fill="#F7921E" fill-rule="evenodd" stroke="none" />
        <path d="M5.18719 6.16822L3.55025 6.16822L3.55025 2.31507C3.55025 1.69269 3.25262 1.32905 2.69989 1.32905C2.23553 1.32516 1.81632 1.60281 1.64403 2.02835L1.64403 6.15423L0 6.15423L0 0.133249L1.28262 0.133249L1.60859 0.699683L1.6582 0.699683C2.08131 0.243469 2.68273 -0.0112517 3.30931 0.000381763C4.5069 0.000381763 5.18719 0.657725 5.18719 2.02136L5.18719 6.16822Z" transform="translate(125.02317 2.6639547)" id="Path_81" fill="#F7921E" fill-rule="evenodd" stroke="none" />
        <path d="M5.17301 5.60884C4.54107 6.11442 3.73818 6.36436 2.92665 6.30814C0.984999 6.30814 0 5.23122 0 3.14031C0 1.17527 1.10547 0.00743886 2.87705 0.00743886C3.55077 -0.046537 4.21436 0.195197 4.69096 0.668211C5.16755 1.14123 5.40872 1.79745 5.35017 2.46199C5.35077 2.82467 5.32472 3.18693 5.27222 3.5459L1.60859 3.5459C1.5464 3.95485 1.68454 4.36866 1.98085 4.66107C2.27716 4.95348 2.69649 5.08979 3.11089 5.02842C3.61622 5.03501 4.10243 4.83804 4.4573 4.48296L5.17301 5.60884ZM1.62985 2.45499L3.79827 2.45499L3.79827 2.29415C3.79827 1.59485 3.49356 1.21024 2.82744 1.21024C2.49837 1.20759 2.18304 1.34028 1.95716 1.57645C1.73128 1.81262 1.61525 2.13095 1.63694 2.45499L1.62985 2.45499Z" transform="translate(131.13866 2.6638906)" id="Path_82" fill="#F7921E" stroke="none" />
        <path d="M0.786582 5.61539L0.786582 2.72727L0 2.72727L0 1.72028L0.793669 1.3986L1.36057 0L2.40935 0L2.40935 1.52448L3.94 1.52448L3.94 2.75525L2.40935 2.75525L2.40935 5.68532C2.38903 5.85821 2.44939 6.03085 2.57341 6.1546C2.69744 6.27836 2.87171 6.33982 3.04712 6.32168C3.34813 6.32071 3.641 6.22518 3.88331 6.04895L4.30849 7.26574C3.79242 7.5627 3.19581 7.69462 2.60068 7.64336C1.54482 7.61539 0.786582 7.11888 0.786582 5.61539Z" transform="translate(136.80061 1.2727276)" id="Path_83" fill="#F7921E" fill-rule="evenodd" stroke="none" />
      </g>
      <g id="Group_36" transform="translate(75.03158 5.30303)">
        <path d="M43.6895 14.34L43.6895 42.8065C43.6895 44.7849 42.5581 46.0018 40.7478 46.0018L38.6901 46.0018C37.2759 46.0018 35.8051 45.1692 35.8051 42.8065L35.8051 13.6283C35.8398 12.6754 35.6609 11.7268 35.2818 10.8528C34.9531 10.1072 34.4711 9.44022 33.8676 8.89578C33.3339 8.38031 32.6942 7.98916 31.9937 7.75C31.3122 7.50788 30.5951 7.38278 29.8724 7.37994L25.6721 7.37994L25.6721 42.8492C25.6721 44.8276 24.5407 46.0445 22.7093 46.0445L20.8849 46.0445C19.0606 46.0445 17.9221 44.8276 17.9221 42.8492L17.9221 7.42264L13.7218 7.42264C13.0201 7.42861 12.3244 7.55372 11.6641 7.7927C10.9784 8.04105 10.3521 8.43138 9.82559 8.93848C9.22867 9.48334 8.74759 10.1442 8.41136 10.8813C8.03178 11.7601 7.85297 12.7134 7.88809 13.671L7.88809 42.8492C7.88809 45.2119 6.39607 46.0445 5.00305 46.0445L2.95241 46.0445C1.14219 46.0445 0.00372913 44.8276 0.00372913 42.8492L0.00372913 14.3827C-0.0415624 12.2791 0.326092 10.1872 1.08562 8.22681C1.74846 6.55984 2.72849 5.03924 3.97066 3.75046C5.11118 2.55846 6.47668 1.6076 7.98709 0.953627C9.43043 0.329495 10.9841 0.00513635 12.5551 0L31.0674 0C32.6235 0.0153896 34.1614 0.339446 35.593 0.953627C37.1163 1.60668 38.4959 2.55729 39.6518 3.75046C40.8917 5.04277 41.882 6.55586 42.5722 8.21258C43.3602 10.1562 43.7452 12.2413 43.7036 14.34L43.6895 14.34Z" transform="translate(111.33831 0.12098255)" id="Path_84" fill="#544D5C" fill-rule="evenodd" stroke="none" />
        <path d="M33.258 8.20546C32.5704 6.54907 31.5824 5.03594 30.3447 3.74334C29.1891 2.55155 27.8093 1.60322 26.2858 0.953627C24.8547 0.33801 23.3166 0.0138931 21.7603 0L12.5677 0C10.9968 0.00513635 9.44311 0.329495 7.99976 0.953627C6.49014 1.60583 5.12475 2.55419 3.98334 3.74334C2.73453 5.02961 1.74942 6.55062 1.08415 8.2197C0.334828 10.168 -0.0325637 12.244 0.00226334 14.3329L0.00226334 42.7994C0.00226334 44.7778 1.13365 45.9947 2.94387 45.9947L5.00866 45.9947C6.42289 45.9947 7.88663 45.1692 7.88663 42.7994L7.88663 29.9183L26.5192 29.9183L26.5192 42.8207C26.5192 45.1905 28.0041 46.0161 29.4042 46.0161L31.4478 46.0161C33.258 46.0161 34.3894 44.7991 34.3894 42.8207L34.3894 14.3542C34.429 12.2557 34.044 10.171 33.258 8.22681L33.258 8.20546ZM7.87248 23.677L7.87248 13.6639C7.84005 12.7072 8.01625 11.755 8.38868 10.8742C8.73364 10.1444 9.21361 9.48745 9.80292 8.93848C10.3321 8.42965 10.9606 8.03705 11.6485 7.78558C12.311 7.55562 13.0055 7.4331 13.7062 7.42264L20.6218 7.42264C21.3436 7.42994 22.0596 7.55245 22.7432 7.78558C23.4446 8.0262 24.0845 8.41989 24.617 8.93848C25.2162 9.48409 25.6976 10.1478 26.0313 10.8884C26.4088 11.7629 26.5875 12.7111 26.5545 13.6639L26.5545 23.677L7.87248 23.677Z" transform="translate(164.46552 0.13521579)" id="Path_85" fill="#544D5C" stroke="none" />
        <path d="M16.4334 1.0142C15.9263 0.337186 15.1179 -0.0416307 14.2767 0.00364449L11.7947 0.00364449C11.3522 0.00839298 10.9167 0.115533 10.5219 0.316776C10.1564 0.478344 9.83229 0.721745 9.57437 1.02844L0.233349 15.0766L0 15.4254L4.06592 21.7876L16.5183 3.28441C16.9809 2.57866 16.9468 1.65499 16.4334 0.985738L16.4334 1.0142Z" transform="translate(267.50894 0.11733806)" id="Path_86" fill="#F7921E" fill-rule="evenodd" stroke="none" />
        <path d="M34.6036 42.6956C32.4021 39.3745 30.1888 36.0345 27.9637 32.6754C26.2879 30.1632 24.5908 27.6938 22.9008 25.146L21.4865 23.011L21.4865 23.011L7.20277 0.985105C6.95474 0.705755 6.65437 0.478422 6.31887 0.316143C5.92185 0.11408 5.48387 0.00692388 5.03899 0.0030117L2.54286 0.0030117C1.72531 -0.0366571 0.937746 0.317382 0.421509 0.956639C-0.107316 1.61481 -0.141868 2.54501 0.336655 3.24107C2.45801 6.52184 4.62886 9.90935 6.88456 13.3111C9.0342 16.5658 11.1697 19.8015 13.291 23.0182L0.661929 42.8024C0.193676 43.4947 0.231014 44.4139 0.753854 45.0655C1.27609 45.7179 2.07959 46.0758 2.91056 46.0262L5.40669 46.0262C5.87067 46.0207 6.32477 45.8905 6.72193 45.649C7.07169 45.4564 7.38329 45.2007 7.64118 44.8947L17.3994 29.4516L27.6738 45.0299C27.9213 45.3326 28.233 45.5758 28.586 45.7415C28.9837 45.9494 29.4248 46.0591 29.873 46.0618L32.3691 46.0618C33.2122 46.1069 34.0228 45.7284 34.5329 45.0512C35.0434 44.3706 35.069 43.4391 34.5965 42.7312L34.6036 42.6956Z" transform="translate(248.2357 0.117970854)" id="Path_87" fill="#544D5C" fill-rule="evenodd" stroke="none" />
        <path d="M35.8004 3.31286C36.2695 2.60987 36.2382 1.68342 35.7226 1.01419C35.2125 0.337027 34.402 -0.0415168 33.5588 0.00362662L31.0627 0.00362662C30.6179 0.00830016 30.1801 0.115415 29.7828 0.316758C29.4173 0.478326 29.0932 0.721727 28.8353 1.02842L19.5155 15.0766L17.9103 17.4892L7.23282 0.98572C6.9765 0.703322 6.66626 0.475805 6.32064 0.316758C5.9231 0.116124 5.48545 0.00904993 5.04075 0.00362662L2.54463 0.00362662C1.72664 -0.0383709 0.938077 0.316117 0.423274 0.957254C-0.107882 1.61454 -0.142492 2.54633 0.33842 3.24169C2.42442 6.52245 4.63062 9.90996 6.88633 13.3117C9.03597 16.5664 11.1715 19.8021 13.2928 23.0188L0.727335 42.803C0.259082 43.4953 0.29642 44.4145 0.81926 45.0661C1.3326 45.7099 2.1214 46.0671 2.94061 46.0268L5.43674 46.0268C5.90389 46.0212 6.36082 45.8884 6.75905 45.6425C7.10482 45.4651 7.41428 45.2236 7.67123 44.9309L17.4295 29.4878L27.7039 45.0661C27.9498 45.3704 28.2619 45.6139 28.6161 45.7777C29.0117 45.9845 29.4502 46.0942 29.8959 46.098L32.3921 46.098C33.2352 46.1431 34.0457 45.7646 34.5558 45.0874C35.0751 44.4099 35.1008 43.4727 34.6195 42.7674C32.4274 39.4463 30.2141 36.1062 27.9797 32.7472C26.3014 30.2327 24.6138 27.7229 22.9167 25.2178L22.0399 23.9084L22.0399 23.9084L35.8004 3.31286Z" transform="translate(207.01604 0.117355935)" id="Path_88" fill="#544D5C" fill-rule="evenodd" stroke="none" />
        <path d="M33.6942 42.6029L24.5016 25.6582C25.4913 25.2159 26.4382 24.6822 27.3301 24.0641C28.5056 23.2592 29.5707 22.3021 30.498 21.2174C31.4273 20.1303 32.1856 18.9062 32.7466 17.5879C33.3132 16.2369 33.6019 14.7844 33.5952 13.318C33.7304 9.6161 32.2004 6.0501 29.4302 3.61089C26.7715 1.27664 23.1793 0.0525842 18.7598 0.00276786L13.612 0.00276786C11.6112 -0.0362046 9.62363 0.336745 7.77122 1.09873C6.198 1.76342 4.7598 2.71391 3.52852 3.90268C2.40249 5.00522 1.50797 6.32416 0.898039 7.78123C0.319646 9.13033 0.0143471 10.582 0 12.0512L0 43.7344C0 45.1577 0.883897 45.9619 2.43248 45.9619L4.92861 45.9619C7.2126 45.9619 7.46009 44.4034 7.46009 43.7344L7.46009 28.6614L7.46009 28.6614L7.46009 13.1827C7.46973 12.3705 7.61064 11.5653 7.87729 10.7987C8.15781 9.98316 8.60597 9.23629 9.19253 8.60676C9.81777 7.93533 10.564 7.38954 11.3917 6.99841C12.3746 6.56949 13.4391 6.36299 14.5101 6.39349L18.3851 6.39349C20.3939 6.32171 22.3678 6.93623 23.9854 8.13707C25.3997 9.26861 26.1068 10.9481 26.1068 13.2681C26.1607 15.1511 25.359 16.9562 23.9289 18.1715C22.3831 19.5041 20.3982 20.2072 18.3638 20.1428L15.097 20.1428C14.1333 20.1621 13.3611 20.9519 13.3575 21.922C13.4491 22.4765 13.6511 23.0066 13.9514 23.4805L26.0573 44.9585C26.5753 45.6003 27.3572 45.9675 28.1786 45.9548L31.6718 45.9548C33.086 45.9548 35.2074 44.9158 33.68 42.5957L33.6942 42.6029Z" transform="translate(50.40264 0.18226428)" id="Path_89" fill="#544D5C" fill-rule="evenodd" stroke="none" />
        <path d="M1.02534 0L6.43479 0C6.70795 -6.53794e-06 6.96982 0.109689 7.16231 0.304751C7.3548 0.499814 7.462 0.764116 7.46011 1.03903L7.46011 45.0269C7.462 45.3018 7.3548 45.5661 7.16231 45.7611C6.96982 45.9562 6.70795 46.0659 6.43479 46.0659L1.02534 46.0659C0.752183 46.0659 0.490312 45.9562 0.297822 45.7611C0.105333 45.5661 -0.00185945 45.3018 2.44178e-05 45.0269L2.44178e-05 1.03903C-0.00185945 0.764116 0.105333 0.499814 0.297822 0.304751C0.490312 0.109689 0.752183 -6.53794e-06 1.02534 6.32083e-16L1.02534 0Z" transform="translate(92.75896 0.09963269)" id="Path_90" fill="#544D5C" fill-rule="evenodd" stroke="none" />
        <path d="M36.9186 2.32002L36.9186 4.39807C36.9186 5.04568 36.6782 6.53306 34.4791 6.53306C24.124 6.50174 23.0598 6.70599 22.0762 7.13085C21.2411 7.51931 20.4892 8.06805 19.8629 8.74633C19.2859 9.36009 18.8406 10.0868 18.5548 10.8813C18.3407 11.497 18.2076 12.1382 18.1588 12.7886L18.1588 43.8242C18.2019 44.6718 17.7249 45.4596 16.9567 45.8097L16.9567 45.8097C16.6828 45.9181 16.3945 45.9853 16.1011 46.009L14.0363 46.009C11.9715 46.009 11.1654 45.2546 11.0947 45.0624L11.0947 45.0624C11.0704 45.0485 11.0527 45.0255 11.0452 44.9984C10.7951 44.698 10.6845 44.3044 10.7411 43.9167L10.7411 13.1515C10.7516 12.9571 10.7516 12.7623 10.7411 12.568C10.6279 11.4487 10.309 10.3604 9.80065 9.35836C8.93804 7.60341 7.14961 6.50407 5.20439 6.53306L0 6.53306L4.83598 0L34.5349 0C36.0347 0.0782828 36.9186 0.896694 36.9186 2.32002Z" transform="translate(8.194786 0.36294764)" id="Path_97" fill="#544D5C" fill-rule="evenodd" stroke="none" />
        <path d="M0.352503 0.583563L0.352503 31.3487C0.344852 31.2944 0.344852 31.2393 0.352503 31.185L0.352503 0C0.362969 0.194378 0.362969 0.389185 0.352503 0.583563L0.352503 0.583563Z" transform="translate(18.540974 13.023416)" id="Path_98" fill="#FFFFFF" fill-rule="evenodd" stroke="none" />
        <path d="M9.82894 0L8.02579 2.39118L4.99225 6.44766L2.8709 6.44766C0.678833 6.44766 0 4.81084 0 4.16322L0 2.14922C0 0.725895 1.32938 0.0142332 2.8709 0.0142332L9.82894 0Z" transform="translate(0.06293347 0.45546374)" id="Path_99" fill="#F7921E" fill-rule="evenodd" stroke="none" />
        <path d="M0.357095 0.352273L0.350023 0.359389" transform="translate(12.624878 0.09607438)" id="Line_12" fill="none" fill-rule="evenodd" stroke="none" />
        <path d="M0.353559 0.359389L0.353559 0.352273" transform="translate(9.531239 0.09607438)" id="Line_13" fill="none" fill-rule="evenodd" stroke="none" />
      </g>
      <g id="Group_34">
        <g id="EMBLEEM-orange">
          <path d="M63.6331 26.9268L48.8071 1.16406C48.3924 0.443808 47.6264 0.000103833 46.7973 1.90735e-07L17.1466 1.90735e-07C16.3174 -0.00033589 15.5512 0.443487 15.1368 1.16406L0.310774 26.9268C-0.103591 27.6475 -0.103591 28.5351 0.310774 29.2557L15.1368 55.0178C15.5519 55.7372 16.318 56.1799 17.1466 56.179L46.7973 56.179C47.6264 56.1789 48.3924 55.7352 48.8071 55.0149L63.6331 29.2564C64.0475 28.5358 64.0475 27.6482 63.6331 26.9276" transform="translate(0.0007125007 -1.9073516E-07)" id="Path_56" fill="#F79220" fill-rule="evenodd" stroke="none" />
          <path d="M8.81082 0.543082C8.53805 0.180839 8.10384 -0.0219369 7.65195 0.0018887L6.31326 0.0018887C6.07456 0.00417869 5.83967 0.0623001 5.62728 0.171633C5.43111 0.259197 5.25766 0.390916 5.12041 0.556576L0.123887 8.06013L0 8.2455L2.17899 11.6468L8.854 1.77462C9.10374 1.3984 9.08636 0.904259 8.81082 0.546633" transform="translate(45.179684 15.665015)" id="Path_57" fill="#544D5C" fill-rule="evenodd" stroke="none" />
          <path d="M18.5765 22.8121C17.3966 21.027 16.2099 19.242 15.0164 17.4569C14.1196 16.1165 13.2152 14.7763 12.3029 13.4363L11.5298 12.2922L11.5369 12.2801L3.89134 0.525839C3.75521 0.37464 3.58907 0.253679 3.40358 0.170725C3.19104 0.0619584 2.95618 0.00432925 2.7176 0.00240115L1.37821 0.00240115C0.934271 -0.0238656 0.505022 0.166592 0.225707 0.513765C-0.0578086 0.865611 -0.0759755 1.36292 0.181108 1.73465C1.30175 3.48394 2.48115 5.2943 3.69028 7.11462C4.84467 8.85089 5.98986 10.5803 7.12584 12.3028L0.389946 22.8746C0.137586 23.2447 0.157743 23.7373 0.4395 24.0855C0.719111 24.4328 1.14849 24.6234 1.59271 24.5976L2.93139 24.5976C3.18125 24.5947 3.42575 24.5246 3.63931 24.3944C3.8274 24.2938 3.99405 24.1573 4.12991 23.9925L9.36075 15.7389L14.867 24.0656C15.0021 24.2208 15.1696 24.3442 15.3576 24.4271C15.5702 24.5366 15.8053 24.595 16.0443 24.5976L17.3829 24.5976C17.8351 24.6208 18.2694 24.4179 18.5425 24.0557C18.8188 23.6929 18.8328 23.1934 18.5772 22.8156" transform="translate(34.81722 15.669475)" id="Path_58" fill="#FFFFFF" fill-rule="evenodd" stroke="none" />
          <path d="M19.4969 1.208L19.4969 2.29962C19.4969 2.64194 19.3737 3.42746 18.2127 3.42746L13.3168 3.42746C12.7519 3.41236 12.1903 3.51918 11.6701 3.74067C11.2329 3.94825 10.8391 4.2375 10.5098 4.59294C10.1947 4.916 9.94787 5.29962 9.78421 5.72078C9.67589 6.04255 9.60765 6.37652 9.58104 6.7151C9.58104 6.79535 9.58104 6.8678 9.58104 6.94095L9.58104 23.0383C9.5928 23.4662 9.35071 23.8605 8.96444 24.0425L8.96444 24.0425C8.82139 24.1029 8.66962 24.1398 8.5149 24.1519L7.42753 24.1519C6.33946 24.1519 5.91187 23.7591 5.87506 23.6547L5.87506 23.6547C5.74826 23.4944 5.69088 23.2897 5.71578 23.0865L5.71578 6.92746C5.72265 6.82577 5.72265 6.72374 5.71578 6.62206C5.65798 6.03531 5.48982 5.46486 5.22023 4.94095C4.76412 3.98571 3.79821 3.38157 2.7425 3.39123L0 3.39123L2.56056 0.00771172L18.2127 0.00771172C18.5483 -0.0313469 18.884 0.0792496 19.1312 0.310261C19.3783 0.541273 19.512 0.869438 19.4969 1.208L19.4969 1.208Z" transform="translate(13.761328 15.659902)" id="Path_100" fill="#FFFFFF" fill-rule="evenodd" stroke="none" />
          <path d="M5.17138 0L4.22843 1.25142L2.62569 3.36151L1.50859 3.36151C0.764116 3.43847 0.0944623 2.90535 0 2.16051L0 1.12784C0 0.399858 0.725622 0 1.50859 0L5.17138 0Z" transform="translate(9.793415 15.688921)" id="Path_101" fill="#544D5C" fill-rule="evenodd" stroke="none" />
        </g>
      </g>
    </g>
  </g>
</svg>