<svg xmlns="http://www.w3.org/2000/svg" xmlns:xlink="http://www.w3.org/1999/xlink" width="293.416" height="60.125" viewBox="0 0 293.416 60.125">
  <defs>
    <clipPath id="clip-path">
      <path id="Clip_3" data-name="Clip 3" d="M0,0H4.464V5.332H0Z" transform="translate(0.189 0.572)" fill="none"/>
    </clipPath>
    <clipPath id="clip-path-2">
      <path id="Clip_8" data-name="Clip 8" d="M0,0H4.475V5.332H0Z" transform="translate(0.177 0.571)" fill="none"/>
    </clipPath>
    <clipPath id="clip-path-3">
      <path id="Clip_19" data-name="Clip 19" d="M0,0H4.465V5.332H0Z" transform="translate(0.153 0.572)" fill="none"/>
    </clipPath>
    <clipPath id="clip-path-4">
      <path id="Clip_30" data-name="Clip 30" d="M0,0H4.465V5.332H0Z" transform="translate(0.454 0.572)" fill="none"/>
    </clipPath>
    <clipPath id="clip-path-5">
      <path id="Clip_35" data-name="Clip 35" d="M0,60.125H293.416V0H0Z" transform="translate(0 0.092)" fill="none"/>
    </clipPath>
  </defs>
  <g id="Group_55" data-name="Group 55" transform="translate(0 -0.59)">
    <path id="Fill_1" data-name="Fill 1" d="M0,0V1.139H1.576V6.352H2.964V1.139H4.54V0Z" transform="translate(176.099 54.238)" fill="#fefefe"/>
    <g id="Group_54" data-name="Group 54" transform="translate(0 0.498)">
      <g id="Group_4" data-name="Group 4" transform="translate(180.651 54.313)">
        <path id="Clip_3-2" data-name="Clip 3" d="M0,0H4.464V5.332H0Z" transform="translate(0.189 0.572)" fill="none"/>
        <g id="Group_4-2" data-name="Group 4" clip-path="url(#clip-path)">
          <path id="Fill_2" data-name="Fill 2" d="M2.627,5.332c-.063,0-.126,0-.188-.007C.82,5.325,0,4.426,0,2.651A2.817,2.817,0,0,1,.648.706,2.3,2.3,0,0,1,2.4.006C2.455,0,2.507,0,2.558,0a1.914,1.914,0,0,1,1.9,1.753,1.758,1.758,0,0,1,0,.308,5.471,5.471,0,0,1-.064.914H1.341a1.109,1.109,0,0,0,.947,1.252,1.147,1.147,0,0,0,.152.01,1.162,1.162,0,0,0,.152-.01h.023a1.546,1.546,0,0,0,1.1-.461l.6.968A2.7,2.7,0,0,1,2.627,5.332ZM1.37,2.073h1.8V1.937c0-.607-.27-.915-.8-.915H2.347a.984.984,0,0,0-.98.966C1.367,2.016,1.368,2.044,1.37,2.073Z" transform="translate(0.189 0.572)" fill="#fefefe"/>
        </g>
      </g>
      <path id="Fill_5" data-name="Fill 5" d="M1.371,0V5.26c0,.378.177.508.43.508a1.128,1.128,0,0,0,.19,0V6.842a1.634,1.634,0,0,1-.656.13A1.224,1.224,0,0,1,.007,5.626V0Z" transform="translate(186.099 53.226)" fill="#fefefe"/>
      <g id="Group_9" data-name="Group 9" transform="translate(188.325 54.313)">
        <path id="Clip_8-2" data-name="Clip 8" d="M0,0H4.475V5.332H0Z" transform="translate(0.177 0.571)" fill="none"/>
        <g id="Group_9-2" data-name="Group 9" clip-path="url(#clip-path-2)">
          <path id="Fill_7" data-name="Fill 7" d="M2.624,5.333c-.062,0-.124,0-.186-.006C.82,5.326,0,4.426,0,2.651A2.816,2.816,0,0,1,.648.707,2.3,2.3,0,0,1,2.4.007C2.457,0,2.512,0,2.566,0a1.922,1.922,0,0,1,1.9,1.752,2.083,2.083,0,0,1,0,.309,6.242,6.242,0,0,1-.066.915H1.34a1.106,1.106,0,0,0,.931,1.252,1.13,1.13,0,0,0,.321,0h.02A1.575,1.575,0,0,0,3.72,3.767l.6.968A2.7,2.7,0,0,1,2.624,5.333ZM1.37,2.073h1.8V1.938c0-.607-.272-.915-.808-.915H2.353A.988.988,0,0,0,1.368,2c0,.018,0,.037,0,.055Z" transform="translate(0.177 0.571)" fill="#fefefe"/>
        </g>
      </g>
      <path id="Fill_10" data-name="Fill 10" d="M3.259,1.175a2.4,2.4,0,0,0-.59-.089c-.383,0-.52.177-.52.531v.354H3.265V2.91H2.119v4.18H.756v-4.2H0V1.972H.78V1.606A1.618,1.618,0,0,1,2.609,0a3.339,3.339,0,0,1,.838.094Z" transform="translate(193.308 53.025)" fill="#fefefe"/>
      <path id="Fill_12" data-name="Fill 12" d="M2.321,5.314C.781,5.314,0,4.425,0,2.674S.817,0,2.362,0c1.561,0,2.32.863,2.32,2.638C4.682,4.388,3.865,5.314,2.321,5.314ZM2.309,1.068c-.747,0-.9.594-.9,1.553,0,1.112.3,1.63.944,1.63l.006-.006a.738.738,0,0,0,.7-.357,2.431,2.431,0,0,0,.21-1.2C3.277,1.569,2.978,1.068,2.309,1.068Z" transform="translate(196.685 54.879)" fill="#fefefe"/>
      <path id="Fill_14" data-name="Fill 14" d="M4.321,5.207H2.952V1.954c0-.525-.241-.832-.708-.832a.951.951,0,0,0-.88.59V5.2H0V.112H1.069L1.34.591h.035A1.83,1.83,0,0,1,2.751,0c1,0,1.57.555,1.57,1.706Z" transform="translate(202.151 54.885)" fill="#fefefe"/>
      <path id="Fill_16" data-name="Fill 16" d="M1.488,7.292H.118L.124,2.173H1.488V7.291ZM.8,1.594H.779A.8.8,0,0,1,.786,0H.811a.781.781,0,0,1,.783.76c0,.018,0,.037,0,.056A.8.8,0,0,1,.8,1.594Z" transform="translate(207.423 52.825)" fill="#fefefe"/>
      <g id="Group_20" data-name="Group 20" transform="translate(209.578 54.313)">
        <path id="Clip_19-2" data-name="Clip 19" d="M0,0H4.465V5.332H0Z" transform="translate(0.153 0.572)" fill="none"/>
        <g id="Group_20-2" data-name="Group 20" clip-path="url(#clip-path-3)">
          <path id="Fill_18" data-name="Fill 18" d="M2.627,5.332c-.063,0-.126,0-.189-.007C.82,5.325,0,4.426,0,2.651A2.818,2.818,0,0,1,.648.707,2.3,2.3,0,0,1,2.4.006C2.455,0,2.508,0,2.56,0a1.916,1.916,0,0,1,1.9,1.751,1.8,1.8,0,0,1,0,.328,6.121,6.121,0,0,1-.058.914H1.34a1.112,1.112,0,0,0,.947,1.252,1.15,1.15,0,0,0,.152.01,1.166,1.166,0,0,0,.153-.01h.02A1.575,1.575,0,0,0,3.72,3.785l.6.95A2.7,2.7,0,0,1,2.627,5.332ZM1.37,2.073H3.164V1.937c0-.607-.27-.915-.8-.915H2.347a.985.985,0,0,0-.98.967C1.367,2.016,1.368,2.044,1.37,2.073Z" transform="translate(0.153 0.572)" fill="#fefefe"/>
        </g>
      </g>
      <path id="Fill_21" data-name="Fill 21" d="M3.33,3.424h.047L4.558,0H6.63V6.352H5.308V1.629H5.272L3.861,5.573H2.716L1.323,1.629h-.06V6.352H0V0H2.125Z" transform="translate(223.835 53.74)" fill="#fefefe"/>
      <path id="Fill_23" data-name="Fill 23" d="M2.321,5.314C.781,5.314,0,4.425,0,2.674S.817,0,2.362,0c1.561,0,2.32.863,2.32,2.638C4.682,4.388,3.865,5.314,2.321,5.314ZM2.3,1.068c-.747,0-.9.594-.9,1.553,0,1.112.3,1.63.95,1.63l.006-.006a.738.738,0,0,0,.7-.357,2.431,2.431,0,0,0,.21-1.2C3.277,1.584,2.967,1.068,2.3,1.068Z" transform="translate(231.392 54.879)" fill="#fefefe"/>
      <path id="Fill_25" data-name="Fill 25" d="M1.61,6.964a4.03,4.03,0,0,1-1.6-.329L0,0H1.352V1.977h.036a1.865,1.865,0,0,1,.988-.283h.01c1.358,0,2.019.825,2.019,2.521a2.516,2.516,0,0,1-2.62,2.745C1.726,6.963,1.668,6.964,1.61,6.964Zm.408-4.143a.9.9,0,0,0-.65.272V5.8a1.559,1.559,0,0,0,.466.072h.048c.771-.007,1.162-.528,1.163-1.55s-.316-1.5-.992-1.5Z" transform="translate(236.853 53.226)" fill="#fefefe"/>
      <path id="Fill_27" data-name="Fill 27" d="M1.481,7.291H.118V2.173H1.481V7.29ZM.792,1.582h0A.8.8,0,0,1,0,.8V.791A.787.787,0,0,1,.779,0H.792A.791.791,0,0,1,.8,1.582Z" transform="translate(241.966 52.825)" fill="#fefefe"/>
      <g id="Group_31" data-name="Group 31" transform="translate(243.819 54.313)">
        <path id="Clip_30-2" data-name="Clip 30" d="M0,0H4.465V5.332H0Z" transform="translate(0.454 0.572)" fill="none"/>
        <g id="Group_31-2" data-name="Group 31" clip-path="url(#clip-path-4)">
          <path id="Fill_29" data-name="Fill 29" d="M2.627,5.332c-.063,0-.126,0-.189-.007C.82,5.325,0,4.426,0,2.651A2.349,2.349,0,0,1,2.4.006C2.455,0,2.508,0,2.56,0a1.916,1.916,0,0,1,1.9,1.751,1.8,1.8,0,0,1,0,.328,5.379,5.379,0,0,1-.065.914H1.34a1.112,1.112,0,0,0,.947,1.252,1.154,1.154,0,0,0,.305,0h.026a1.545,1.545,0,0,0,1.1-.461l.6.95A2.7,2.7,0,0,1,2.627,5.332ZM1.37,2.073H3.135V1.937c0-.607-.27-.915-.8-.915a.982.982,0,0,0-.966,1Z" transform="translate(0.454 0.572)" fill="#fefefe"/>
        </g>
      </g>
      <path id="Fill_32" data-name="Fill 32" d="M1.37,0V5.26c0,.378.178.508.431.508a1.128,1.128,0,0,0,.19,0V6.842a1.638,1.638,0,0,1-.656.13A1.223,1.223,0,0,1,0,5.868a1.275,1.275,0,0,1,0-.242V0Z" transform="translate(249.533 53.226)" fill="#fefefe"/>
      <path id="Clip_35-2" data-name="Clip 35" d="M0,60.125H293.416V0H0Z" transform="translate(0 0.092)" fill="none"/>
      <g id="Mask_Group_1" data-name="Mask Group 1" clip-path="url(#clip-path-5)">
        <path id="Fill_34" data-name="Fill 34" d="M0,6.352H1.387V0H0Z" transform="translate(259.919 53.74)" fill="#fefefe"/>
        <path id="Fill_36" data-name="Fill 36" d="M4.321,5.207H2.952V1.954c0-.525-.242-.832-.709-.832a.94.94,0,0,0-.873.59V5.2H0V.112H1.069L1.34.591h.035A1.83,1.83,0,0,1,2.751,0c1,0,1.57.555,1.57,1.706Z" transform="translate(262.557 54.885)" fill="#fefefe"/>
        <path id="Fill_37" data-name="Fill 37" d="M.674,4.74V2.3H0v-.85l.661-.272L1.133,0h.874V1.286H3.283V2.325H2.008V4.8a.484.484,0,0,0,.426.537.476.476,0,0,0,.1,0,1.185,1.185,0,0,0,.7-.231l.354,1.027a2.4,2.4,0,0,1-1.423.319C1.3,6.428.674,6.009.674,4.74" transform="translate(267.357 53.711)" fill="#fefefe"/>
        <path id="Fill_38" data-name="Fill 38" d="M2.627,5.332c-.063,0-.126,0-.189-.007C.82,5.325,0,4.426,0,2.651A2.349,2.349,0,0,1,2.4.006C2.455,0,2.508,0,2.56,0a1.916,1.916,0,0,1,1.9,1.751,1.8,1.8,0,0,1,0,.328,6.241,6.241,0,0,1-.058.914H1.341a1.109,1.109,0,0,0,.947,1.252,1.147,1.147,0,0,0,.152.01,1.162,1.162,0,0,0,.152-.01h.026a1.542,1.542,0,0,0,1.1-.461l.6.95A2.7,2.7,0,0,1,2.627,5.332ZM1.37,2.073h1.8V1.937c0-.607-.27-.915-.8-.915H2.347a.983.983,0,0,0-.979.967C1.367,2.013,1.368,2.04,1.37,2.073Z" transform="translate(271.117 54.885)" fill="#fefefe"/>
        <path id="Fill_39" data-name="Fill 39" d="M3.146,1.376a2.864,2.864,0,0,0-.59-.047,2.014,2.014,0,0,0-1.181.407V5.208H0V.113H1.074l.277.75h.036A1.37,1.37,0,0,1,2.71,0a1.968,1.968,0,0,1,.436.047Z" transform="translate(276.39 54.884)" fill="#fefefe"/>
        <path id="Fill_40" data-name="Fill 40" d="M4.321,5.207H2.957V1.954c0-.525-.247-.832-.708-.832a.937.937,0,0,0-.879.59V5.2H0V.113H1.068L1.34.591h.042A1.815,1.815,0,0,1,2.757,0c1,0,1.564.555,1.564,1.706Z" transform="translate(280.015 54.885)" fill="#fefefe"/>
        <path id="Fill_41" data-name="Fill 41" d="M2.627,5.332c-.063,0-.126,0-.189-.007C.82,5.325,0,4.426,0,2.651,0,1,.9.006,2.4.006,2.449,0,2.5,0,2.554,0A1.924,1.924,0,0,1,4.459,1.758a1.833,1.833,0,0,1,0,.321,6.374,6.374,0,0,1-.064.914H1.34a1.1,1.1,0,0,0,.925,1.252,1.105,1.105,0,0,0,.327,0h.02a1.538,1.538,0,0,0,1.1-.461l.6.95A2.677,2.677,0,0,1,2.627,5.332Zm-.278-4.31A.99.99,0,0,0,1.362,2c0,.023,0,.046,0,.069h0l-.005,0H3.165V1.937c0-.607-.273-.915-.81-.915Z" transform="translate(285.109 54.885)" fill="#fefefe"/>
        <path id="Fill_42" data-name="Fill 42" d="M.655,4.74V2.3H0v-.85l.661-.272L1.133,0h.873V1.286H3.282V2.325H2.007V4.8a.486.486,0,0,0,.427.537.475.475,0,0,0,.1,0,1.184,1.184,0,0,0,.7-.231l.355,1.027a2.406,2.406,0,0,1-1.423.319C1.286,6.428.655,6.009.655,4.74" transform="translate(289.827 53.711)" fill="#fefefe"/>
        <path id="Fill_43" data-name="Fill 43" d="M36.475,11.9V35.51a2.372,2.372,0,0,1-2.456,2.651H32.3a2.338,2.338,0,0,1-2.409-2.651V11.3A5.278,5.278,0,0,0,29.456,9,4.77,4.77,0,0,0,28.275,7.38a4.21,4.21,0,0,0-1.564-.951,5.387,5.387,0,0,0-1.771-.306H21.433V35.546a2.377,2.377,0,0,1-2.474,2.65H17.436a2.379,2.379,0,0,1-2.473-2.65V6.157H11.456a5.2,5.2,0,0,0-1.718.307,4.351,4.351,0,0,0-1.535.95A4.993,4.993,0,0,0,7.022,9.027a5.324,5.324,0,0,0-.437,2.314v24.2A2.346,2.346,0,0,1,4.176,38.2H2.465A2.376,2.376,0,0,1,0,35.546V11.931a13.268,13.268,0,0,1,.9-5.107A11.457,11.457,0,0,1,3.315,3.111,10.311,10.311,0,0,1,6.668.79,9.726,9.726,0,0,1,10.482,0H25.937a9.876,9.876,0,0,1,3.778.79A10.443,10.443,0,0,1,33.1,3.111a12.009,12.009,0,0,1,2.438,3.7,12.777,12.777,0,0,1,.945,5.082Z" transform="translate(148.969 2.473)" fill="#fefefe"/>
        <path id="Fill_44" data-name="Fill 44" d="M26.255,38.173H24.549a2.348,2.348,0,0,1-2.409-2.651v-10.7H6.584V35.5a2.325,2.325,0,0,1-2.4,2.651H2.458A2.374,2.374,0,0,1,0,35.5V11.89A13.372,13.372,0,0,1,.9,6.818,11.315,11.315,0,0,1,3.326,3.1,10.285,10.285,0,0,1,6.678.791,9.7,9.7,0,0,1,10.492,0h7.674a9.783,9.783,0,0,1,3.779.791A10.365,10.365,0,0,1,25.334,3.1a11.951,11.951,0,0,1,2.432,3.7v.018a12.769,12.769,0,0,1,.945,5.083V35.522A2.374,2.374,0,0,1,26.255,38.173ZM11.444,6.157a5.527,5.527,0,0,0-1.719.3,4.389,4.389,0,0,0-1.541.957A5.268,5.268,0,0,0,7,9.021a5.488,5.488,0,0,0-.43,2.314v8.307h15.6V11.335a5.357,5.357,0,0,0-.437-2.3,4.873,4.873,0,0,0-1.181-1.617,4.228,4.228,0,0,0-1.563-.957,5.7,5.7,0,0,0-1.771-.3Z" transform="translate(193.325 2.485)" fill="#fefefe"/>
        <path id="Fill_45" data-name="Fill 45" d="M13.72.841A2.112,2.112,0,0,0,11.919,0H9.847a2.406,2.406,0,0,0-1.062.26,2.186,2.186,0,0,0-.791.59L.195,12.507,0,12.8l3.395,5.277,10.4-15.349A1.64,1.64,0,0,0,13.72.818Z" transform="translate(279.353 2.47)" fill="#fefefe"/>
        <path id="Fill_46" data-name="Fill 46" d="M28.89,35.418l-5.543-8.312c-1.4-2.084-2.816-4.133-4.227-6.246l-1.181-1.771L6.013.817A2.348,2.348,0,0,0,5.275.262,2.411,2.411,0,0,0,4.207,0H2.123A2.148,2.148,0,0,0,.352.794a1.584,1.584,0,0,0-.071,1.9C2.052,5.41,3.864,8.22,5.747,11.042q2.692,4.05,5.349,8.053L.552,35.506a1.578,1.578,0,0,0,.077,1.877,2.151,2.151,0,0,0,1.8.8H4.514a2.176,2.176,0,0,0,1.1-.313,2.7,2.7,0,0,0,.767-.625l8.147-12.811L23.1,37.354a2.182,2.182,0,0,0,.762.59,2.36,2.36,0,0,0,1.075.266h2.083a2.125,2.125,0,0,0,1.807-.838,1.659,1.659,0,0,0,.053-1.925Z" transform="translate(263.262 2.471)" fill="#fefefe"/>
        <path id="Fill_47" data-name="Fill 47" d="M29.889,2.748A1.627,1.627,0,0,0,29.824.841,2.122,2.122,0,0,0,28.018,0H25.934a2.435,2.435,0,0,0-1.069.259,2.2,2.2,0,0,0-.791.59L16.293,12.506l-1.34,2L6.039.817A2.366,2.366,0,0,0,5.277.262,2.451,2.451,0,0,0,4.208,0H2.124A2.135,2.135,0,0,0,.353.794a1.577,1.577,0,0,0-.071,1.9c1.742,2.722,3.583,5.532,5.467,8.354q2.692,4.05,5.349,8.053L.607,35.507a1.577,1.577,0,0,0,.077,1.877,2.138,2.138,0,0,0,1.771.8H4.539a2.169,2.169,0,0,0,1.1-.319,2.575,2.575,0,0,0,.762-.59l8.147-12.811,8.578,12.923a2.118,2.118,0,0,0,.762.59,2.356,2.356,0,0,0,1.069.266h2.084A2.125,2.125,0,0,0,28.85,37.4a1.633,1.633,0,0,0,.053-1.925q-2.746-4.133-5.544-8.312-2.1-3.129-4.226-6.246L18.4,19.833Z" transform="translate(228.849 2.47)" fill="#fefefe"/>
        <path id="Fill_48" data-name="Fill 48" d="M28.131,35.341,20.456,21.284a14.63,14.63,0,0,0,2.361-1.322A13.49,13.49,0,0,0,25.462,17.6a11.627,11.627,0,0,0,1.878-3.01,8.981,8.981,0,0,0,.708-3.542A10.2,10.2,0,0,0,24.571,3,13.377,13.377,0,0,0,15.662,0h-4.3A12.246,12.246,0,0,0,6.488.911,11.606,11.606,0,0,0,2.946,3.237,9.8,9.8,0,0,0,.75,6.454,9.167,9.167,0,0,0,0,10V36.28c0,1.181.738,1.848,2.031,1.848H4.115c1.907,0,2.113-1.293,2.113-1.848V10.935a6.234,6.234,0,0,1,.349-1.977,5.106,5.106,0,0,1,1.1-1.819A6.026,6.026,0,0,1,9.511,5.806a6.1,6.1,0,0,1,2.6-.5h3.235A7.438,7.438,0,0,1,20.025,6.75,5.075,5.075,0,0,1,21.8,11.006a5.127,5.127,0,0,1-1.818,4.068,6.81,6.81,0,0,1-4.646,1.635H12.6a1.482,1.482,0,0,0-1.452,1.476,3.465,3.465,0,0,0,.5,1.293L21.755,37.3a2.239,2.239,0,0,0,1.771.827h2.916c1.181,0,2.952-.863,1.676-2.787Z" transform="translate(98.095 2.524)" fill="#fefefe"/>
        <path id="Fill_49" data-name="Fill 49" d="M.856,0H5.372a.855.855,0,0,1,.857.855v36.5a.856.856,0,0,1-.849.862H.856A.855.855,0,0,1,0,37.359V.862A.856.856,0,0,1,.848,0Z" transform="translate(133.457 2.455)" fill="#fefefe"/>
        <path id="Fill_50" data-name="Fill 50" d="M30.823,1.925V3.648c0,.537-.2,1.771-2.037,1.771-8.645-.026-9.534.143-10.355.5a5.908,5.908,0,0,0-1.848,1.34A5.12,5.12,0,0,0,15.49,9.027a6.252,6.252,0,0,0-.33,1.582V36.354a1.713,1.713,0,0,1-1,1.647,2.5,2.5,0,0,1-.714.165H11.719c-1.724,0-2.4-.626-2.456-.785a.093.093,0,0,1-.041-.054,1.141,1.141,0,0,1-.254-.9V10.91a4.138,4.138,0,0,0,0-.484,7.517,7.517,0,0,0-.785-2.663A4.211,4.211,0,0,0,4.344,5.42H0L4.037,0h24.8a1.84,1.84,0,0,1,1.99,1.925" transform="translate(62.856 2.674)" fill="#fefefe"/>
        <path id="Fill_51" data-name="Fill 51" d="M.294.484V26a.523.523,0,0,1,0-.136V0a4.4,4.4,0,0,1,0,.484" transform="translate(71.495 13.177)" fill="#fefefe"/>
        <path id="Fill_52" data-name="Fill 52" d="M8.205,0,6.7,1.984,4.167,5.349H2.4A2.184,2.184,0,0,1,0,3.454V1.783C0,.6,1.109.012,2.4.012Z" transform="translate(56.067 2.75)" fill="#fefefe"/>
        <path id="Fill_53" data-name="Fill 53" d="M35.349,42.3h-22.4a1.758,1.758,0,0,1-1.517-.879L.235,22.027a1.761,1.761,0,0,1,0-1.753L11.434.879A1.758,1.758,0,0,1,12.951,0h22.4a1.758,1.758,0,0,1,1.517.879l11.2,19.394a1.761,1.761,0,0,1,0,1.753L36.867,41.42A1.758,1.758,0,0,1,35.349,42.3ZM27.281,11.794a1.029,1.029,0,0,0-.811.386.773.773,0,0,0-.035.921c.855,1.334,1.747,2.7,2.65,4.05s1.818,2.732,2.6,3.909l-5.089,7.957a.758.758,0,0,0,.036.915,1.046,1.046,0,0,0,.814.385l.059,0h1.01a1.113,1.113,0,0,0,.531-.152,1.224,1.224,0,0,0,.373-.3l3.949-6.215,4.163,6.269a1.065,1.065,0,0,0,.372.272,1.143,1.143,0,0,0,.519.129h1.01l.056,0a1.021,1.021,0,0,0,.817-.408.814.814,0,0,0,.029-.933c-.989-1.493-1.869-2.812-2.692-4.032-.687-1.021-1.388-2.055-2.048-3.028l-.584-.863.005-.005-5.774-8.855a1.325,1.325,0,0,0-.886-.4H27.338ZM12.5,14.346h0a2.066,2.066,0,0,1,1.847,1.163,3.636,3.636,0,0,1,.372,1.27,1.4,1.4,0,0,1,0,.229V29.176a.55.55,0,0,0,.119.425c.018.058.308.372,1.168.372h.821a.97.97,0,0,0,.343-.082.822.822,0,0,0,.466-.757V16.85a2.91,2.91,0,0,1,.153-.751,2.451,2.451,0,0,1,.549-.851,2.884,2.884,0,0,1,.874-.643,3.008,3.008,0,0,1,1.16-.236h3.782c.842,0,.968-.533.968-.851V12.7a.493.493,0,0,0,0-.136.879.879,0,0,0-.87-.773.89.89,0,0,0-.1.005H12.331L10.4,14.346h2.1ZM38.892,11.8a1.163,1.163,0,0,0-.519.13,1.087,1.087,0,0,0-.384.29l-3.772,5.65L34.122,18l1.647,2.562,5.042-7.433a.787.787,0,0,0-.03-.921h0V12.2a1.041,1.041,0,0,0-.821-.409H38.892Zm-30.356.018c-.566,0-1.139.292-1.139.85v.774a1.04,1.04,0,0,0,1.031.909,1.053,1.053,0,0,0,.109-.006H9.38l1.21-1.589.715-.939Z" transform="translate(0 0.092)" fill="#fefefe"/>
      </g>
    </g>
  </g>
</svg>
