<svg xmlns="http://www.w3.org/2000/svg" width="746" height="521" viewBox="0 0 746 521">
  <path id="Subtraction_1" data-name="Subtraction 1" d="M595,373H-151V-148H595V373ZM165.08,119a24.355,24.355,0,0,0-21.048,12.206L86.526,231.294a24.5,24.5,0,0,0,0,24.412l57.506,100.087A24.354,24.354,0,0,0,165.08,368H280.141a24.352,24.352,0,0,0,21.048-12.207l57.555-100.087a24.507,24.507,0,0,0,0-24.412L301.19,131.206A24.353,24.353,0,0,0,280.141,119Zm227-132A24.355,24.355,0,0,0,371.031-.795L313.526,99.293a24.5,24.5,0,0,0,0,24.413l57.506,100.087A24.354,24.354,0,0,0,392.08,236H507.141a24.353,24.353,0,0,0,21.048-12.207l57.555-100.087a24.507,24.507,0,0,0,0-24.413L528.189-.795A24.353,24.353,0,0,0,507.141-13ZM-65.19-13A24.352,24.352,0,0,0-86.237-.795L-143.743,99.293A24.526,24.526,0,0,0-147,111.5a24.532,24.532,0,0,0,3.256,12.207l57.506,100.087A24.351,24.351,0,0,0-65.19,236H49.873a24.352,24.352,0,0,0,21.048-12.207l57.554-100.087a24.5,24.5,0,0,0,0-24.413L70.921-.795A24.353,24.353,0,0,0,49.873-13ZM165.444-143A24.353,24.353,0,0,0,144.4-130.794L86.891-30.706A24.526,24.526,0,0,0,83.634-18.5,24.532,24.532,0,0,0,86.891-6.294L144.4,93.794A24.352,24.352,0,0,0,165.444,106H280.506a24.353,24.353,0,0,0,21.049-12.207L359.109-6.294A24.534,24.534,0,0,0,362.365-18.5a24.527,24.527,0,0,0-3.256-12.206L301.555-130.794A24.354,24.354,0,0,0,280.506-143Z" transform="translate(151 148)" fill="#fff"/>
</svg>
