<svg xmlns="http://www.w3.org/2000/svg" width="745.73" height="520.999" viewBox="0 0 745.73 520.999">
  <path id="Subtraction_1" data-name="Subtraction 1" d="M594.73,373H-151V-148H594.73V373ZM165.81,119a24.352,24.352,0,0,0-21.047,12.206L87.256,231.294a24.506,24.506,0,0,0,0,24.412l57.506,100.087A24.351,24.351,0,0,0,165.81,368H280.872a24.352,24.352,0,0,0,21.048-12.207l57.555-100.087a24.506,24.506,0,0,0,0-24.412L301.92,131.206A24.353,24.353,0,0,0,280.872,119Zm227-132A24.352,24.352,0,0,0,371.762-.795L314.256,99.293a24.506,24.506,0,0,0,0,24.413l57.506,100.087A24.351,24.351,0,0,0,392.809,236H508.252l.081,0h.033a24.285,24.285,0,0,0,20.554-12.2l57.555-100.087a24.575,24.575,0,0,0,0-24.413L528.92-.795A24.289,24.289,0,0,0,508.362-13h-.012l-.1,0H392.809Zm-457,0A24.356,24.356,0,0,0-85.238-.795L-142.744,99.293A24.53,24.53,0,0,0-146,111.5a24.528,24.528,0,0,0,3.257,12.206l57.505,100.087A24.355,24.355,0,0,0-64.19,236H50.872A24.352,24.352,0,0,0,71.92,223.793l57.555-100.087a24.506,24.506,0,0,0,0-24.413L71.92-.795A24.353,24.353,0,0,0,50.872-13ZM166.175-143a24.352,24.352,0,0,0-21.047,12.206L87.621-30.706A24.526,24.526,0,0,0,84.365-18.5,24.533,24.533,0,0,0,87.621-6.294L145.128,93.794A24.352,24.352,0,0,0,166.175,106H281.237a24.352,24.352,0,0,0,21.048-12.207L359.841-6.294A24.534,24.534,0,0,0,363.1-18.5a24.527,24.527,0,0,0-3.256-12.206L302.286-130.794A24.353,24.353,0,0,0,281.237-143Z" transform="translate(151 148)" fill="#fff"/>
</svg>
