<svg xmlns="http://www.w3.org/2000/svg" width="27" height="23.882" viewBox="0 0 27 23.882">
  <path id="Combined_Shape" data-name="Combined Shape" d="M21.81,0H3.2A3.04,3.04,0,0,0,0,2.839v11.5a3.035,3.035,0,0,0,3.2,2.832H13.848a.978.978,0,0,1,.638.238l5.291,4.329c.294.253.781.149.781-.212V17.75c0-.447.319-.588.823-.588h.084A3.368,3.368,0,0,0,25,14.33V2.839A2.674,2.674,0,0,0,24.07.831,3.4,3.4,0,0,0,21.81,0Z" transform="translate(1 1)" fill="none" stroke="#fff" stroke-miterlimit="10" stroke-width="2"/>
</svg>
