<svg id="embleem-orange" xmlns="http://www.w3.org/2000/svg" width="80.884" height="72" viewBox="0 0 80.884 72">
  <path id="Path_56" d="M80.491,34.507,61.736,1.492A2.927,2.927,0,0,0,59.195,0H21.689a2.925,2.925,0,0,0-2.542,1.492L.393,34.507a3.029,3.029,0,0,0,0,2.985L19.147,70.508A2.925,2.925,0,0,0,21.689,72H59.195a2.927,2.927,0,0,0,2.542-1.492L80.491,37.493a3.029,3.029,0,0,0,0-2.985" transform="translate(0 0)" fill="#f79220"/>
  <path id="Path_57" d="M10.886.724A1.637,1.637,0,0,0,9.454,0H7.8a1.781,1.781,0,0,0-.847.226,1.749,1.749,0,0,0-.627.513l-6.173,10L0,10.993l2.692,4.537L10.939,2.363A1.5,1.5,0,0,0,10.886.725" transform="translate(57.176 19.765)" fill="#544d5c"/>
  <path id="Path_58" d="M23.479,28.807q-2.233-3.38-4.5-6.761-1.7-2.539-3.43-5.076l-.977-1.445.009-.015L4.918.668A1.84,1.84,0,0,0,4.3.216,1.939,1.939,0,0,0,3.435,0H1.742A1.738,1.738,0,0,0,.285.648,1.288,1.288,0,0,0,.229,2.191C1.646,4.4,3.137,6.685,4.664,8.983q2.188,3.288,4.342,6.551L.491,28.88a1.282,1.282,0,0,0,.063,1.529,1.742,1.742,0,0,0,1.458.647H3.7A1.759,1.759,0,0,0,4.6,30.8a2.067,2.067,0,0,0,.62-.508l6.611-10.42,6.958,10.513a1.768,1.768,0,0,0,.62.457,1.943,1.943,0,0,0,.87.216h1.691a1.725,1.725,0,0,0,1.466-.684,1.343,1.343,0,0,0,.044-1.565" transform="translate(44.626 19.765)" fill="#fff"/>
  <path id="Path_100" d="M25.1,1.545v1.4c0,.44-.159,1.451-1.653,1.451h-6.3a5.07,5.07,0,0,0-2.12.4A4.9,4.9,0,0,0,13.53,5.9,4.316,4.316,0,0,0,12.6,7.348a5.309,5.309,0,0,0-.261,1.282v21a1.386,1.386,0,0,1-.794,1.292h0a1.864,1.864,0,0,1-.579.14h-1.4c-1.4,0-1.952-.506-2-.636h0a.984.984,0,0,1-.2-.73V8.9a2.907,2.907,0,0,0,0-.393,6.011,6.011,0,0,0-.635-2.162A3.5,3.5,0,0,0,3.53,4.353H0L3.3,0H23.45A1.484,1.484,0,0,1,25.1,1.545Z" transform="translate(16.735 19.765)" fill="#fff"/>
  <path id="Path_101" d="M6.973,0,5.7,1.573,3.54,4.226H2.034A1.835,1.835,0,0,1,0,2.717v-1.3C0,.5.978,0,2.034,0Z" transform="translate(12.551 19.765)" fill="#544d5c"/>
</svg>
