<?xml version="1.0" encoding="utf-8"?>
<svg width="129px" height="110px" viewbox="0 0 129 110" version="1.1" xmlns:xlink="http://www.w3.org/1999/xlink" xmlns="http://www.w3.org/2000/svg">
  <g id="Internet" transform="translate(1.75 1.75)">
    <path d="M30.5 75C30.5 75 61 63.434 61 37.5L61 9.3601C51.8645 3.54967 41.3257 0.315443 30.5 0C19.6713 0.297625 9.12792 3.53328 0 9.3601L0 37.5C0 63.434 30.5 75 30.5 75Z" transform="translate(64 31)" id="Path" fill="none" fill-rule="evenodd" stroke="#FFFFFF" stroke-width="3.5" stroke-linejoin="round" />
    <path d="M27 0L18.0191 8.97143L8.98093 18L0 8.97143" transform="translate(81 59)" id="Path" fill="none" fill-rule="evenodd" stroke="#FFFFFF" stroke-width="3.5" stroke-linecap="round" stroke-linejoin="round" />
    <path d="M88 1L0 1" transform="translate(10 22)" id="Path" fill="none" fill-rule="evenodd" stroke="#FFFFFF" stroke-width="3.5" stroke-linejoin="round" />
    <path d="M101 30.9209C92.6313 10.3289 73.0767 -0.758925 50.9264 0.0404028C28.7761 0.839731 9.47897 15.4283 2.60636 36.5702C-4.26625 57.7121 2.74752 80.9102 20.1689 94.6584C37.5902 108.407 61.7134 109.78 80.5734 98.0983" id="Path" fill="none" fill-rule="evenodd" stroke="#FFFFFF" stroke-width="3.5" stroke-linejoin="round" />
    <path d="M64 3L0 3" transform="translate(0 52)" id="Path" fill="none" fill-rule="evenodd" stroke="#FFFFFF" stroke-width="3.5" stroke-linejoin="round" />
    <path d="M0 3L59 3" transform="translate(10 80)" id="Path" fill="none" fill-rule="evenodd" stroke="#FFFFFF" stroke-width="3.5" stroke-linejoin="round" />
    <path d="M40 33.6901C37.2888 12.7726 30.3539 0 20.8646 0C9.0767 0 0 23.5028 0 52C0 80.4972 9.31246 104 20.8646 104C27.4069 104 33.3009 96.4203 37.073 84.6102" transform="translate(32 2)" id="Path" fill="none" fill-rule="evenodd" stroke="#FFFFFF" stroke-width="3.5" stroke-linecap="round" stroke-linejoin="round" />
  </g>
</svg>