<svg xmlns="http://www.w3.org/2000/svg" width="24" height="24" viewBox="0 0 24 24">
  <g id="Group-7" transform="translate(-2.142 12) rotate(-45)">
    <path id="Rectangle" d="M1.332,0H22.668q.065,0,.131.006t.129.019q.064.013.127.032T23.177.1q.061.025.118.056t.112.067q.054.036.1.078t.1.088q.046.046.088.1t.078.105q.036.054.067.112T23.9.822q.025.06.044.123t.032.127q.013.064.019.129T24,1.332v0q0,.065-.006.131t-.019.129q-.013.064-.032.127t-.044.123q-.025.06-.056.118t-.067.112q-.036.054-.078.105t-.088.1q-.046.046-.1.088t-.1.078q-.054.036-.112.067t-.118.056q-.06.025-.123.044t-.127.032q-.064.013-.129.019t-.131.006H1.332q-.065,0-.131-.006t-.129-.019q-.064-.013-.127-.032T.822,2.565Q.762,2.54.7,2.509T.592,2.442Q.538,2.406.487,2.364t-.1-.088Q.344,2.23.3,2.18T.225,2.075Q.188,2.02.157,1.962T.1,1.844q-.025-.06-.044-.123T.026,1.594Q.013,1.53.006,1.465T0,1.334v0Q0,1.267.006,1.2t.019-.129Q.038,1.008.057.946T.1.822Q.126.762.157.7T.225.592Q.261.538.3.487T.39.39Q.437.344.487.3T.592.225Q.647.188.7.157T.822.1Q.883.076.946.057T1.072.026Q1.137.013,1.2.006T1.332,0Z" transform="translate(0.572 17.542) rotate(-45)" fill="none" fill-rule="evenodd"/>
    <path id="Rectangle-2" data-name="Rectangle" d="M1.332,0H22.668q.065,0,.131.006t.129.019q.064.013.127.032T23.177.1q.061.025.118.056t.112.067q.054.036.1.078t.1.088q.046.046.088.1t.078.105q.036.054.067.112T23.9.822q.025.06.044.123t.032.127q.013.064.019.129T24,1.332v0q0,.065-.006.131t-.019.129q-.013.064-.032.127t-.044.123q-.025.06-.056.118t-.067.112q-.036.054-.078.105t-.088.1q-.046.046-.1.088t-.1.078q-.054.036-.112.067t-.118.056q-.06.025-.123.044t-.127.032q-.064.013-.129.019t-.131.006H1.332q-.065,0-.131-.006t-.129-.019q-.064-.013-.127-.032T.822,2.565Q.762,2.54.7,2.509T.592,2.442Q.538,2.406.487,2.364t-.1-.088Q.344,2.23.3,2.18T.225,2.075Q.188,2.02.157,1.962T.1,1.844q-.025-.06-.044-.123T.026,1.594Q.013,1.53.006,1.465T0,1.334v0Q0,1.267.006,1.2t.019-.129Q.038,1.008.057.946T.1.822Q.126.762.157.7T.225.592Q.261.538.3.487T.39.39Q.437.344.487.3T.592.225Q.647.188.7.157T.822.1Q.883.076.946.057T1.072.026Q1.137.013,1.2.006T1.332,0Z" transform="translate(2.458 0.572) rotate(45)" fill="#fff" fill-rule="evenodd"/>
  </g>
</svg>
