<svg xmlns="http://www.w3.org/2000/svg" width="742.73" height="652.001" viewBox="0 0 742.73 652.001">
  <path id="Subtraction_1" data-name="Subtraction 1" d="M742.73,652H0V0H742.73V652ZM540.859,398a24.344,24.344,0,0,0-21.047,12.206L462.257,510.295a24.507,24.507,0,0,0,0,24.412l57.555,100.087A24.346,24.346,0,0,0,540.859,647H655.922a24.35,24.35,0,0,0,21.048-12.207l57.506-100.087a24.495,24.495,0,0,0,0-24.412L676.97,410.207A24.347,24.347,0,0,0,655.922,398Zm-454,0a24.345,24.345,0,0,0-21.047,12.206L8.257,510.295a24.5,24.5,0,0,0,0,24.412L65.812,634.794A24.347,24.347,0,0,0,86.86,647H201.922a24.35,24.35,0,0,0,21.048-12.207l57.506-100.087a24.495,24.495,0,0,0,0-24.412L222.97,410.207A24.347,24.347,0,0,0,201.922,398Zm227-131a24.345,24.345,0,0,0-21.047,12.206L235.257,379.294a24.5,24.5,0,0,0,0,24.413l57.555,100.087A24.347,24.347,0,0,0,313.86,516H428.922a24.35,24.35,0,0,0,21.048-12.207l57.506-100.087a24.495,24.495,0,0,0,0-24.413L449.97,279.206A24.348,24.348,0,0,0,428.922,267Zm-227-132a24.345,24.345,0,0,0-21.047,12.206L8.257,247.294a24.5,24.5,0,0,0,0,24.413L65.812,371.794A24.347,24.347,0,0,0,86.86,384H201.922a24.349,24.349,0,0,0,21.048-12.207l57.506-100.087a24.495,24.495,0,0,0,0-24.413L222.97,147.206A24.347,24.347,0,0,0,201.922,135ZM313.494,5a24.347,24.347,0,0,0-21.048,12.206L234.891,117.294a24.5,24.5,0,0,0,0,24.412l57.555,100.087A24.349,24.349,0,0,0,313.494,254H428.557A24.347,24.347,0,0,0,449.6,241.794L507.11,141.707a24.5,24.5,0,0,0,0-24.412L449.6,17.206A24.345,24.345,0,0,0,428.557,5Z" fill="#fff"/>
</svg>
