<?xml version="1.0" encoding="utf-8"?>
<svg width="30px" height="30px" viewbox="0 0 30 30" version="1.1" xmlns:xlink="http://www.w3.org/1999/xlink" xmlns="http://www.w3.org/2000/svg">
  <g id="Group-7" transform="matrix(0.70710677 -0.70710677 0.70710677 0.70710677 0.70703125 14.849121)">
    <path d="M1.33233 2.23699e-15L22.6677 1.31483e-16Q22.7331 1.25024e-16 22.7983 0.00641555Q22.8634 0.0128311 22.9276 0.0256004Q22.9918 0.0383697 23.0544 0.0573698Q23.1171 0.0763699 23.1775 0.101418Q23.238 0.126466 23.2957 0.15732Q23.3534 0.188175 23.4079 0.224539Q23.4623 0.260903 23.5129 0.302426Q23.5635 0.343949 23.6098 0.390231Q23.6561 0.436514 23.6976 0.48711Q23.7391 0.537706 23.7755 0.592129Q23.8118 0.646551 23.8427 0.704276Q23.8735 0.762 23.8986 0.822471Q23.9236 0.882942 23.9426 0.945577Q23.9616 1.00821 23.9744 1.07241Q23.9872 1.1366 23.9936 1.20174Q24 1.26688 24 1.33233L24 1.33433Q24 1.39979 23.9936 1.46492Q23.9872 1.53006 23.9744 1.59426Q23.9616 1.65845 23.9426 1.72109Q23.9236 1.78372 23.8986 1.8442Q23.8735 1.90467 23.8427 1.96239Q23.8118 2.02012 23.7755 2.07454Q23.7391 2.12896 23.6976 2.17956Q23.6561 2.23015 23.6098 2.27644Q23.5635 2.32272 23.5129 2.36424Q23.4623 2.40576 23.4079 2.44213Q23.3534 2.47849 23.2957 2.50935Q23.238 2.5402 23.1775 2.56525Q23.1171 2.5903 23.0544 2.6093Q22.9918 2.6283 22.9276 2.64107Q22.8634 2.65384 22.7983 2.66025Q22.7331 2.66667 22.6677 2.66667L1.33233 2.66667Q1.26688 2.66667 1.20174 2.66025Q1.1366 2.65384 1.07241 2.64107Q1.00821 2.6283 0.945577 2.6093Q0.882942 2.5903 0.822471 2.56525Q0.762 2.5402 0.704276 2.50935Q0.646551 2.47849 0.592129 2.44213Q0.537706 2.40576 0.48711 2.36424Q0.436514 2.32272 0.390231 2.27644Q0.343949 2.23015 0.302426 2.17956Q0.260903 2.12896 0.224539 2.07454Q0.188175 2.02012 0.15732 1.96239Q0.126466 1.90467 0.101418 1.8442Q0.0763699 1.78372 0.0573698 1.72109Q0.0383697 1.65845 0.0256004 1.59426Q0.0128311 1.53006 0.00641555 1.46492Q5.72875e-13 1.39979 5.72875e-13 1.33433L5.72875e-13 1.33233Q5.72875e-13 1.26688 0.00641555 1.20174Q0.0128311 1.1366 0.0256004 1.07241Q0.0383697 1.00821 0.0573698 0.945577Q0.0763699 0.882942 0.101418 0.822471Q0.126466 0.762 0.15732 0.704276Q0.188175 0.646551 0.224539 0.592129Q0.260903 0.537706 0.302426 0.48711Q0.343949 0.436514 0.390231 0.390231Q0.436514 0.343949 0.48711 0.302426Q0.537706 0.260903 0.592129 0.224539Q0.646551 0.188175 0.704276 0.15732Q0.762 0.126466 0.822471 0.101418Q0.882942 0.0763699 0.945577 0.0573698Q1.00821 0.0383697 1.07241 0.0256004Q1.1366 0.0128311 1.20174 0.00641555Q1.26688 2.24345e-15 1.33233 2.23699e-15Z" transform="matrix(0.70710677 -0.70710677 0.70710677 0.70710677 0.57190967 17.542473)" id="Rectangle" fill="#FFFFFF" fill-rule="evenodd" stroke="none" />
    <path d="M1.33233 1.67774e-15L22.6677 9.86125e-17Q22.7331 9.3768e-17 22.7983 0.00641555Q22.8634 0.0128311 22.9276 0.0256004Q22.9918 0.0383697 23.0544 0.0573698Q23.1171 0.0763699 23.1775 0.101418Q23.238 0.126466 23.2957 0.15732Q23.3534 0.188175 23.4079 0.224539Q23.4623 0.260903 23.5129 0.302426Q23.5635 0.343949 23.6098 0.390231Q23.6561 0.436514 23.6976 0.48711Q23.7391 0.537706 23.7755 0.592129Q23.8118 0.646551 23.8427 0.704276Q23.8735 0.762 23.8986 0.822471Q23.9236 0.882942 23.9426 0.945577Q23.9616 1.00821 23.9744 1.07241Q23.9872 1.1366 23.9936 1.20174Q24 1.26688 24 1.33233L24 1.33433Q24 1.39979 23.9936 1.46492Q23.9872 1.53006 23.9744 1.59426Q23.9616 1.65845 23.9426 1.72109Q23.9236 1.78372 23.8986 1.8442Q23.8735 1.90467 23.8427 1.96239Q23.8118 2.02012 23.7755 2.07454Q23.7391 2.12896 23.6976 2.17956Q23.6561 2.23015 23.6098 2.27644Q23.5635 2.32272 23.5129 2.36424Q23.4623 2.40576 23.4079 2.44213Q23.3534 2.47849 23.2957 2.50935Q23.238 2.5402 23.1775 2.56525Q23.1171 2.5903 23.0544 2.6093Q22.9918 2.6283 22.9276 2.64107Q22.8634 2.65384 22.7983 2.66025Q22.7331 2.66667 22.6677 2.66667L1.33233 2.66667Q1.26688 2.66667 1.20174 2.66025Q1.1366 2.65384 1.07241 2.64107Q1.00821 2.6283 0.945577 2.6093Q0.882942 2.5903 0.822471 2.56525Q0.762 2.5402 0.704276 2.50935Q0.646551 2.47849 0.592129 2.44213Q0.537706 2.40576 0.48711 2.36424Q0.436514 2.32272 0.390231 2.27644Q0.343949 2.23015 0.302426 2.17956Q0.260903 2.12896 0.224539 2.07454Q0.188175 2.02012 0.15732 1.96239Q0.126466 1.90467 0.101418 1.8442Q0.0763699 1.78372 0.0573698 1.72109Q0.0383697 1.65845 0.0256004 1.59426Q0.0128311 1.53006 0.00641555 1.46492Q2.3735e-16 1.39979 2.49613e-16 1.33433L2.49988e-16 1.33233Q2.6225e-16 1.26688 0.00641555 1.20174Q0.0128311 1.1366 0.0256004 1.07241Q0.0383697 1.00821 0.0573698 0.945577Q0.0763699 0.882942 0.101418 0.822471Q0.126466 0.762 0.15732 0.704276Q0.188175 0.646551 0.224539 0.592129Q0.260903 0.537706 0.302426 0.48711Q0.343949 0.436514 0.390231 0.390231Q0.436514 0.343949 0.48711 0.302426Q0.537706 0.260903 0.592129 0.224539Q0.646551 0.188175 0.704276 0.15732Q0.762 0.126466 0.822471 0.101418Q0.882942 0.0763699 0.945577 0.0573698Q1.00821 0.0383697 1.07241 0.0256004Q1.1366 0.0128311 1.20174 0.00641555Q1.26688 1.68259e-15 1.33233 1.67774e-15Z" transform="matrix(0.70710665 0.7071069 -0.7071069 0.70710665 2.4575295 0.57190895)" id="Rectangle" fill="#FFFFFF" fill-rule="evenodd" stroke="none" />
  </g>
</svg>