<svg xmlns="http://www.w3.org/2000/svg" width="613" height="539" viewBox="0 0 613 539">
  <path id="Subtraction_1" data-name="Subtraction 1" d="M613,539H0V0H613V539ZM71.079,333a19.657,19.657,0,0,0-16.99,9.853L7.629,423.647a19.778,19.778,0,0,0,0,19.705l46.46,80.795A19.658,19.658,0,0,0,71.079,534H163.96a19.658,19.658,0,0,0,16.991-9.852l46.42-80.795a19.778,19.778,0,0,0,0-19.705l-46.42-80.794A19.658,19.658,0,0,0,163.96,333Zm187-106a19.657,19.657,0,0,0-16.99,9.853l-46.46,80.794a19.778,19.778,0,0,0,0,19.705l46.46,80.795A19.658,19.658,0,0,0,258.079,428H350.96a19.658,19.658,0,0,0,16.991-9.852l46.42-80.795a19.784,19.784,0,0,0,0-19.705l-46.42-80.794A19.658,19.658,0,0,0,350.96,227Zm191-105a19.657,19.657,0,0,0-16.99,9.853l-46.46,80.794a19.778,19.778,0,0,0,0,19.705l46.46,80.795A19.658,19.658,0,0,0,449.079,323H541.96a19.659,19.659,0,0,0,16.991-9.852l46.42-80.795a19.778,19.778,0,0,0,0-19.705l-46.42-80.794A19.658,19.658,0,0,0,541.96,122Zm-378-5a19.657,19.657,0,0,0-16.99,9.853L7.629,207.647a19.778,19.778,0,0,0,0,19.705l46.46,80.795A19.658,19.658,0,0,0,71.079,318H163.96a19.658,19.658,0,0,0,16.991-9.852l46.42-80.795a19.778,19.778,0,0,0,0-19.705l-46.42-80.794A19.657,19.657,0,0,0,163.96,117Zm187-112a19.657,19.657,0,0,0-16.99,9.853l-46.46,80.794a19.778,19.778,0,0,0,0,19.705l46.46,80.795A19.658,19.658,0,0,0,258.079,206H350.96a19.659,19.659,0,0,0,16.991-9.852l46.42-80.795a19.784,19.784,0,0,0,0-19.705l-46.42-80.794A19.658,19.658,0,0,0,350.96,5Z" transform="translate(0 0)" fill="#fff"/>
</svg>
