<?xml version="1.0" encoding="utf-8"?>
<svg width="78px" height="62px" viewbox="0 0 78 62" version="1.1" xmlns:xlink="http://www.w3.org/1999/xlink" xmlns="http://www.w3.org/2000/svg">
  <g id="VasteTelefonie" transform="translate(1.125 1.125)">
    <path d="M63.667 31.145L63.7396 31.0766L73.8079 21.0335C75.3377 19.5109 75.4034 17.0603 73.9573 15.4584C65.0764 5.61872 52.4243 0 39.1482 0C25.8721 0 13.2199 5.61872 4.33902 15.4584C2.89503 17.0611 2.96064 19.51 4.48839 21.0335L8.30336 24.8333C2.67671 27.6144 -0.604418 33.6077 0.0927625 39.8308C0.789943 46.0539 5.31652 51.1776 11.4199 52.6521L11.4199 53.6625C11.4266 56.6091 13.8218 58.9956 16.7771 59L61.5233 59C64.4779 58.9956 66.8719 56.6085 66.8764 53.6625L66.8764 43.6958C66.876 43.4909 66.8217 43.2897 66.7189 43.1122L58.6449 29.2088L62.2056 31.2577C62.652 31.5557 63.2445 31.5126 63.6427 31.153L63.667 31.145ZM50.4982 20.796L50.4982 14.2509C50.5081 12.3519 49.1855 10.7044 47.3251 10.298C41.9801 8.79009 36.3203 8.79009 30.9752 10.298C29.1148 10.7044 27.7923 12.3519 27.8021 14.2509L27.8021 20.796C27.8149 21.4047 27.4864 21.9697 26.9503 22.2612L15.6144 28.7902L6.16375 19.367C5.52248 18.7315 5.49406 17.7062 6.09916 17.0364C14.528 7.68904 26.5415 2.35072 39.1482 2.35072C51.7548 2.35072 63.7683 7.68904 72.1972 17.0364C72.8033 17.7051 72.7767 18.7304 72.1366 19.367L62.686 28.7902L51.346 22.2612C50.8122 21.9679 50.4856 21.4036 50.4982 20.796L50.4982 20.796ZM11.5814 43.1082C11.476 43.2847 11.4202 43.4863 11.4199 43.6918L11.4199 50.241C6.28044 48.7716 2.63471 44.2224 2.33108 38.9C2.02746 33.5775 5.13233 28.6455 10.0716 26.6045L14.5325 31.0524C14.8884 31.4535 15.4718 31.5629 15.9495 31.3181L16.0342 31.2698L19.6312 29.2008L11.5814 43.1082ZM64.5349 44.0058L64.5349 53.6665C64.5349 55.3234 63.189 56.6671 61.5273 56.6694L16.7771 56.6694C15.1147 56.6671 13.7677 55.324 13.7654 53.6665L13.7654 44.0058L23.6884 26.8661L28.1291 24.306C29.3951 23.5941 30.1695 22.2491 30.1476 20.8L30.1476 14.2549C30.1368 13.4586 30.6938 12.7664 31.4758 12.6045C36.4777 11.1738 41.7823 11.1738 46.7842 12.6045C47.5662 12.7664 48.1232 13.4586 48.1123 14.2549L48.1123 20.8C48.0905 22.2491 48.8649 23.5941 50.1309 24.306L54.5716 26.8661L64.5349 44.0058Z" id="Path_920" fill="#FFFFFF" stroke="none" />
    <path d="M12 24C18.6274 24 24 18.6274 24 12C24 5.37258 18.6274 0 12 0C5.37258 0 0 5.37258 0 12C0 18.6274 5.37258 24 12 24Z" transform="translate(27 28)" id="Ellipse_3" fill="none" fill-rule="evenodd" stroke="#FFFFFF" stroke-width="2.25" />
    <path d="M4 8C6.20914 8 8 6.20914 8 4C8 1.79086 6.20914 0 4 0C1.79086 0 0 1.79086 0 4C0 6.20914 1.79086 8 4 8Z" transform="translate(35 36)" id="Ellipse_4" fill="none" fill-rule="evenodd" stroke="#FFFFFF" stroke-width="2.25" />
  </g>
</svg>