<?xml version="1.0" encoding="utf-8"?>
<svg width="19px" height="24px" viewbox="0 0 19 24" version="1.1" xmlns:xlink="http://www.w3.org/1999/xlink" xmlns="http://www.w3.org/2000/svg">
  <defs>
    <filter id="filter_1">
      <feColorMatrix in="SourceGraphic" type="matrix" values="0 0 0 0 1 0 0 0 0 1 0 0 0 0 1 0 0 0 1 0" />
    </filter>
  </defs>
  <g id="upload" filter="url(#filter_1)">
    <path d="M11.5149 5.46789L6.48081 0.255736C6.15148 -0.0852455 5.61513 -0.0852455 5.2811 0.255736L0.247 5.46789C-0.0823333 5.80887 -0.0823333 6.36418 0.247 6.71004C0.581038 7.05102 1.11738 7.05102 1.44671 6.70517L5.03645 2.99333L5.03645 18.1232C5.03645 18.6054 5.41753 19 5.8833 19C6.34908 19 6.73016 18.6054 6.73016 18.1232L6.73016 2.99333L10.3199 6.71004C10.4846 6.88053 10.701 6.96821 10.9174 6.96821C11.1338 6.96821 11.3502 6.88053 11.5149 6.71004C11.8442 6.36905 11.8442 5.81374 11.5149 5.46789Z" transform="translate(3.6191406 0)" id="Path" fill="#000000" fill-rule="evenodd" stroke="none" />
    <path d="M18.1934 0C17.7498 0 17.3868 0.364396 17.3868 0.809769L17.3868 5.38046L1.61321 5.38046L1.61321 0.809769C1.61321 0.364396 1.25024 0 0.806604 0C0.362972 0 0 0.364396 0 0.809769L0 6.19023C0 6.6356 0.358491 7 0.806604 7L18.1934 7C18.637 7 19 6.6356 19 6.19023L19 0.809769C19 0.364396 18.637 0 18.1934 0Z" transform="translate(0 17)" id="Path" fill="#000000" fill-rule="evenodd" stroke="none" />
  </g>
</svg>